<svg xmlns="http://www.w3.org/2000/svg" xmlns:xlink="http://www.w3.org/1999/xlink" width="269" zoomAndPan="magnify" viewBox="0 0 201.75 73.499998" height="98" preserveAspectRatio="xMidYMid meet" version="1.0"><defs><g/><clipPath id="d7621d3eb8"><path d="M 0.855469 0.503906 L 51.507812 0.503906 L 51.507812 58.609375 L 0.855469 58.609375 Z M 0.855469 0.503906 " clip-rule="nonzero"/></clipPath></defs><g clip-path="url(#d7621d3eb8)"><path fill="#161616" d="M 18.222656 17.84375 L 18.222656 14.84375 C 18.222656 10.40625 21.835938 6.78125 26.289062 6.78125 C 30.742188 6.78125 34.355469 10.390625 34.355469 14.84375 L 40.476562 14.84375 C 40.476562 7.023438 34.109375 0.660156 26.289062 0.660156 C 18.46875 0.660156 12.101562 7.023438 12.101562 14.84375 L 12.101562 17.84375 L 0.914062 17.84375 L 0.914062 43.984375 C 0.914062 51.972656 7.417969 58.476562 15.40625 58.476562 L 51.632812 58.476562 L 51.632812 17.84375 Z M 43.996094 50.824219 L 15.421875 50.824219 C 11.644531 50.824219 8.582031 47.75 8.582031 43.984375 L 8.582031 25.496094 L 44.011719 25.496094 L 44.011719 50.824219 Z M 43.996094 50.824219 " fill-opacity="1" fill-rule="nonzero"/></g><path fill="#70acc7" d="M 26.289062 42.46875 C 30.957031 42.46875 35.257812 39.546875 36.957031 35.199219 L 32.6875 33.515625 C 31.660156 36.117188 29.089844 37.878906 26.289062 37.878906 C 23.472656 37.878906 20.902344 36.117188 19.875 33.515625 L 15.605469 35.199219 C 17.320312 39.546875 21.605469 42.46875 26.289062 42.46875 Z M 26.289062 42.46875 " fill-opacity="1" fill-rule="nonzero"/><g fill="#161616" fill-opacity="1"><g transform="translate(57.909391, 51.295281)"><g><path d="M 2.285156 -20.640625 L 2.285156 -17.957031 C 1.996094 -17.847656 1.742188 -17.8125 1.488281 -17.886719 C 1.234375 -17.921875 0.980469 -17.921875 0.726562 -17.921875 L 0.472656 -17.632812 C 0.542969 -17.414062 0.582031 -17.195312 0.652344 -16.976562 C 0.726562 -16.761719 0.761719 -16.542969 0.835938 -16.324219 C 0.835938 -16.109375 0.871094 -15.890625 0.941406 -15.671875 C 1.015625 -15.453125 1.050781 -15.273438 1.050781 -15.054688 C 1.050781 -14.835938 1.050781 -14.65625 1.125 -14.511719 C 1.160156 -14.328125 1.195312 -14.148438 1.269531 -13.96875 C 1.269531 -13.929688 1.269531 -13.859375 1.34375 -13.785156 C 1.414062 -13.714844 1.523438 -13.675781 1.632812 -13.675781 C 1.703125 -13.675781 1.8125 -13.714844 1.960938 -13.714844 C 2.066406 -13.675781 2.175781 -13.675781 2.25 -13.714844 C 2.320312 -13.75 2.394531 -13.714844 2.46875 -13.566406 C 2.46875 -13.277344 2.429688 -12.953125 2.429688 -12.589844 C 2.429688 -12.226562 2.429688 -11.863281 2.429688 -11.574219 C 2.429688 -10.558594 2.46875 -9.578125 2.46875 -8.632812 C 2.46875 -7.65625 2.46875 -6.675781 2.46875 -5.660156 C 2.46875 -5.441406 2.429688 -5.261719 2.429688 -5.042969 C 2.429688 -4.824219 2.394531 -4.570312 2.359375 -4.351562 C 2.285156 -4.136719 2.214844 -3.953125 2.175781 -3.808594 C 2.140625 -3.664062 2.105469 -3.445312 2.066406 -3.230469 C 1.996094 -2.9375 1.921875 -2.683594 1.851562 -2.46875 C 1.742188 -2.25 1.667969 -2.03125 1.632812 -1.851562 C 1.558594 -1.632812 1.488281 -1.34375 1.34375 -1.015625 C 1.195312 -0.652344 1.195312 -0.398438 1.34375 -0.179688 C 1.34375 -0.109375 1.414062 -0.109375 1.558594 -0.109375 C 1.703125 -0.109375 1.851562 -0.109375 1.996094 -0.109375 C 2.140625 -0.109375 2.285156 -0.144531 2.429688 -0.144531 C 2.574219 -0.144531 2.648438 -0.109375 2.683594 -0.109375 C 2.976562 -0.0742188 3.335938 -0.0351562 3.773438 -0.0351562 C 4.207031 -0.0351562 4.644531 -0.0351562 5.113281 -0.0351562 L 6.457031 -0.0351562 C 6.894531 -0.0351562 7.253906 -0.0351562 7.582031 -0.0742188 C 7.65625 -0.144531 7.726562 -0.21875 7.800781 -0.253906 C 7.835938 -0.433594 7.761719 -0.6875 7.617188 -1.050781 C 7.472656 -1.414062 7.363281 -1.667969 7.363281 -1.851562 L 6.929688 -3.046875 C 6.929688 -3.191406 6.894531 -3.335938 6.894531 -3.445312 C 6.894531 -3.519531 6.855469 -3.628906 6.855469 -3.699219 C 6.820312 -3.773438 6.785156 -3.84375 6.785156 -3.953125 C 6.746094 -4.027344 6.746094 -4.171875 6.746094 -4.390625 C 6.746094 -4.933594 6.746094 -5.441406 6.746094 -5.914062 C 6.746094 -6.386719 6.785156 -6.894531 6.855469 -7.472656 C 6.710938 -8.707031 6.710938 -9.976562 6.929688 -11.320312 C 6.929688 -11.390625 6.894531 -11.425781 6.894531 -11.5 C 6.894531 -11.535156 6.855469 -11.574219 6.855469 -11.609375 C 6.820312 -11.609375 6.820312 -11.644531 6.855469 -11.71875 C 6.929688 -12.007812 6.929688 -12.296875 6.929688 -12.589844 C 6.929688 -12.878906 6.929688 -13.207031 7 -13.53125 C 7 -13.53125 7.039062 -13.53125 7.039062 -13.566406 C 7.039062 -13.566406 7.039062 -13.605469 7.074219 -13.640625 C 7.761719 -13.675781 8.488281 -13.714844 9.214844 -13.714844 C 9.941406 -13.714844 10.703125 -13.820312 11.5 -14.039062 C 11.789062 -14.183594 12.152344 -14.367188 12.515625 -14.511719 C 12.878906 -14.65625 13.242188 -14.910156 13.53125 -15.238281 C 13.605469 -15.34375 13.675781 -15.453125 13.75 -15.601562 C 13.820312 -15.707031 13.894531 -15.816406 13.96875 -15.960938 C 14.222656 -16.324219 14.328125 -16.761719 14.328125 -17.195312 C 14.257812 -17.738281 14.257812 -18.285156 14.292969 -18.828125 C 14.328125 -19.335938 14.328125 -19.878906 14.328125 -20.460938 C 14.328125 -21.621094 14.292969 -22.746094 14.292969 -23.871094 C 14.292969 -24.996094 14.292969 -26.121094 14.292969 -27.28125 L 14.292969 -28.1875 L 14.003906 -28.660156 C 13.859375 -29.09375 13.640625 -29.457031 13.351562 -29.785156 C 13.058594 -30.074219 12.734375 -30.363281 12.371094 -30.65625 C 12.152344 -30.765625 11.972656 -30.871094 11.789062 -30.980469 C 11.609375 -31.054688 11.425781 -31.089844 11.246094 -31.089844 C 11.027344 -31.089844 10.8125 -31.089844 10.59375 -31.164062 C 10.375 -31.199219 10.195312 -31.199219 9.976562 -31.164062 C 9.796875 -31.089844 9.613281 -31.089844 9.433594 -31.125 C 9.25 -31.125 9.070312 -31.125 8.886719 -31.054688 C 8.671875 -31.164062 8.488281 -31.199219 8.269531 -31.125 C 8.054688 -31.054688 7.871094 -31.019531 7.691406 -31.054688 C 7.546875 -31.054688 7.4375 -31.054688 7.328125 -31.054688 C 7.21875 -31.054688 7.109375 -31.054688 7 -31.054688 C 6.640625 -31.054688 6.3125 -31.054688 5.949219 -31.054688 C 5.585938 -31.054688 5.261719 -31.054688 4.933594 -31.054688 C 4.679688 -31.054688 4.425781 -31.019531 4.207031 -30.980469 C 3.992188 -30.945312 3.773438 -30.980469 3.554688 -31.125 C 3.335938 -31.125 3.121094 -31.164062 2.902344 -31.164062 C 2.683594 -31.164062 2.429688 -31.125 2.214844 -31.125 C 1.960938 -31.089844 1.742188 -31.054688 1.523438 -31.054688 C 1.304688 -31.054688 1.160156 -31.019531 1.089844 -31.019531 L 1.195312 -30.363281 C 1.269531 -30.074219 1.34375 -29.75 1.488281 -29.421875 C 1.488281 -29.347656 1.523438 -29.203125 1.597656 -29.058594 C 1.632812 -28.914062 1.667969 -28.730469 1.742188 -28.585938 C 1.777344 -28.40625 1.8125 -28.261719 1.851562 -28.117188 C 1.886719 -27.96875 1.921875 -27.863281 1.921875 -27.863281 L 2.320312 -26.699219 C 2.394531 -26.445312 2.394531 -26.15625 2.394531 -25.832031 C 2.394531 -25.46875 2.359375 -25.175781 2.359375 -24.921875 C 2.285156 -24.199219 2.25 -23.507812 2.25 -22.78125 C 2.25 -22.058594 2.285156 -21.367188 2.285156 -20.640625 Z M 6.964844 -26.953125 C 7.363281 -27.0625 7.761719 -27.136719 8.199219 -27.136719 C 8.597656 -27.136719 8.996094 -27.027344 9.433594 -26.847656 C 9.613281 -26.664062 9.757812 -26.445312 9.832031 -26.230469 C 9.902344 -26.011719 9.976562 -25.757812 10.011719 -25.503906 C 10.011719 -24.921875 10.050781 -24.378906 10.050781 -23.835938 L 10.050781 -21.148438 C 10.050781 -20.789062 10.050781 -20.460938 10.085938 -20.132812 C 10.085938 -19.988281 10.085938 -19.84375 10.121094 -19.734375 C 10.15625 -19.589844 10.195312 -19.480469 10.230469 -19.371094 C 10.15625 -19.046875 10.050781 -18.792969 9.902344 -18.574219 C 9.757812 -18.355469 9.542969 -18.175781 9.289062 -17.992188 C 8.925781 -17.957031 8.597656 -17.957031 8.234375 -17.957031 C 7.871094 -17.957031 7.507812 -17.957031 7.148438 -18.03125 C 7.109375 -18.066406 7.074219 -18.101562 7.074219 -18.101562 C 7.074219 -18.101562 7.039062 -18.101562 7.039062 -18.140625 L 7 -18.210938 C 6.929688 -19.664062 6.929688 -21.113281 6.929688 -22.566406 C 6.929688 -24.015625 6.929688 -25.46875 6.964844 -26.953125 Z M 6.855469 -27.0625 L 6.929688 -27.0625 L 6.964844 -26.992188 C 6.929688 -26.992188 6.894531 -26.992188 6.855469 -27.0625 Z M 6.855469 -27.0625 "/></g></g></g><g fill="#161616" fill-opacity="1"><g transform="translate(73.287386, 51.295281)"><g><path d="M 9.433594 -4.605469 C 9.46875 -4.460938 9.503906 -4.316406 9.503906 -4.171875 C 9.503906 -4.027344 9.542969 -3.917969 9.613281 -3.808594 C 9.648438 -3.589844 9.648438 -3.519531 9.578125 -3.519531 C 9.503906 -3.519531 9.46875 -3.410156 9.542969 -3.230469 C 9.578125 -3.082031 9.578125 -2.902344 9.503906 -2.683594 L 9.324219 -2.140625 C 9.25 -2.03125 9.214844 -1.886719 9.214844 -1.742188 C 9.214844 -1.558594 9.179688 -1.414062 9.140625 -1.34375 L 8.996094 -0.652344 C 8.996094 -0.363281 8.996094 -0.21875 9.070312 -0.179688 C 9.105469 -0.144531 9.289062 -0.144531 9.578125 -0.21875 C 9.578125 -0.21875 9.613281 -0.179688 9.648438 -0.179688 C 9.648438 -0.144531 9.6875 -0.144531 9.722656 -0.144531 L 11.71875 -0.21875 C 11.972656 -0.21875 12.261719 -0.21875 12.625 -0.179688 C 12.988281 -0.109375 13.277344 -0.144531 13.566406 -0.21875 L 13.605469 -0.21875 C 13.675781 -0.144531 13.785156 -0.144531 13.894531 -0.144531 C 14.003906 -0.144531 14.113281 -0.144531 14.222656 -0.144531 C 14.328125 -0.144531 14.4375 -0.179688 14.546875 -0.179688 C 14.65625 -0.179688 14.765625 -0.144531 14.875 -0.0742188 C 14.910156 -0.0351562 14.945312 -0.0351562 15.019531 -0.0742188 C 15.054688 -0.0742188 15.089844 -0.109375 15.164062 -0.109375 C 15.273438 -0.109375 15.308594 -0.179688 15.273438 -0.398438 C 15.238281 -0.582031 15.199219 -0.761719 15.199219 -0.90625 C 15.128906 -0.980469 15.089844 -1.125 15.019531 -1.378906 C 14.945312 -1.632812 14.835938 -1.921875 14.765625 -2.214844 C 14.691406 -2.503906 14.621094 -2.757812 14.546875 -3.046875 C 14.476562 -3.300781 14.402344 -3.484375 14.402344 -3.589844 C 14.328125 -3.808594 14.292969 -3.917969 14.257812 -3.917969 C 14.222656 -3.917969 14.183594 -4.027344 14.183594 -4.246094 L 13.96875 -6.203125 C 13.929688 -6.386719 13.929688 -6.566406 13.929688 -6.710938 C 13.929688 -6.855469 13.894531 -7.039062 13.820312 -7.253906 C 13.75 -7.4375 13.714844 -7.617188 13.675781 -7.761719 C 13.640625 -7.910156 13.640625 -8.089844 13.675781 -8.308594 L 13.675781 -8.632812 C 13.675781 -8.707031 13.640625 -8.816406 13.605469 -8.960938 C 13.460938 -9.433594 13.421875 -9.867188 13.421875 -10.265625 C 13.421875 -10.59375 13.386719 -10.917969 13.3125 -11.210938 C 13.242188 -11.5 13.207031 -11.828125 13.167969 -12.152344 L 12.953125 -13.421875 C 12.878906 -13.675781 12.84375 -13.929688 12.84375 -14.183594 C 12.84375 -14.402344 12.804688 -14.65625 12.769531 -14.945312 C 12.699219 -15.089844 12.660156 -15.273438 12.660156 -15.453125 C 12.660156 -15.601562 12.625 -15.78125 12.625 -16 C 12.589844 -16.289062 12.550781 -16.578125 12.550781 -16.871094 C 12.550781 -17.160156 12.515625 -17.449219 12.445312 -17.738281 C 12.371094 -17.8125 12.371094 -17.886719 12.371094 -17.957031 C 12.371094 -18.03125 12.335938 -18.101562 12.335938 -18.175781 C 12.261719 -18.609375 12.226562 -19.046875 12.191406 -19.480469 C 12.152344 -19.917969 12.117188 -20.386719 12.042969 -20.824219 C 11.933594 -21.222656 11.863281 -21.621094 11.863281 -22.019531 C 11.828125 -22.382812 11.789062 -22.78125 11.753906 -23.21875 C 11.71875 -23.4375 11.679688 -23.652344 11.644531 -23.871094 C 11.609375 -24.089844 11.609375 -24.304688 11.644531 -24.523438 C 11.644531 -24.921875 11.574219 -25.320312 11.5 -25.683594 C 11.425781 -26.046875 11.355469 -26.445312 11.320312 -26.882812 C 11.171875 -26.917969 11.136719 -26.992188 11.171875 -27.136719 C 11.210938 -27.246094 11.210938 -27.355469 11.171875 -27.460938 C 11.101562 -27.535156 11.101562 -27.644531 11.101562 -27.753906 C 11.101562 -27.863281 11.066406 -27.96875 11.066406 -28.117188 C 11.027344 -28.40625 10.992188 -28.695312 10.957031 -28.984375 C 10.917969 -29.277344 10.882812 -29.601562 10.847656 -29.894531 C 10.8125 -30.003906 10.8125 -30.148438 10.8125 -30.292969 C 10.8125 -30.4375 10.773438 -30.582031 10.738281 -30.691406 C 10.664062 -30.765625 10.628906 -30.835938 10.59375 -30.835938 C 10.519531 -30.835938 10.484375 -30.910156 10.410156 -30.980469 C 10.339844 -31.019531 10.230469 -31.054688 10.011719 -31.054688 L 9.105469 -31.054688 C 8.960938 -31.054688 8.78125 -31.054688 8.632812 -31.125 C 8.234375 -31.199219 7.910156 -31.164062 7.617188 -31.054688 C 7.546875 -31.019531 7.4375 -31.019531 7.292969 -31.019531 L 6.855469 -31.019531 C 6.640625 -31.019531 6.386719 -31.019531 6.132812 -31.019531 C 5.878906 -31.019531 5.660156 -31.054688 5.441406 -31.054688 L 4.96875 -31.054688 C 4.824219 -31.019531 4.714844 -31.019531 4.570312 -31.019531 C 4.425781 -31.019531 4.316406 -31.019531 4.207031 -31.089844 C 4.136719 -31.089844 3.992188 -31.089844 3.773438 -31.054688 C 3.554688 -31.019531 3.445312 -30.980469 3.410156 -30.945312 C 3.335938 -30.871094 3.335938 -30.800781 3.375 -30.691406 C 3.375 -30.546875 3.410156 -30.472656 3.445312 -30.402344 C 3.484375 -30.148438 3.554688 -29.894531 3.628906 -29.640625 C 3.699219 -29.347656 3.808594 -29.09375 3.882812 -28.839844 C 3.953125 -28.585938 4.027344 -28.371094 4.097656 -28.152344 C 4.136719 -27.933594 4.136719 -27.789062 4.136719 -27.714844 C 4.0625 -27.28125 4.097656 -27.027344 4.171875 -26.953125 C 4.246094 -26.882812 4.28125 -26.847656 4.351562 -26.773438 C 4.28125 -26.628906 4.207031 -26.410156 4.136719 -26.085938 C 4.027344 -25.757812 3.992188 -25.46875 3.992188 -25.214844 C 3.992188 -24.921875 3.953125 -24.667969 3.953125 -24.488281 C 3.917969 -24.269531 3.882812 -24.050781 3.84375 -23.835938 C 3.808594 -23.617188 3.773438 -23.4375 3.773438 -23.253906 C 3.773438 -23.035156 3.773438 -22.855469 3.773438 -22.675781 C 3.738281 -22.3125 3.699219 -22.058594 3.664062 -21.875 L 3.519531 -21.367188 C 3.484375 -21.222656 3.445312 -21.078125 3.445312 -20.96875 C 3.445312 -20.824219 3.445312 -20.679688 3.484375 -20.496094 C 3.519531 -20.351562 3.484375 -20.171875 3.410156 -19.988281 C 3.335938 -19.808594 3.265625 -19.625 3.230469 -19.480469 C 3.15625 -19.15625 3.082031 -18.828125 3.082031 -18.539062 C 3.082031 -18.210938 3.046875 -17.886719 3.011719 -17.59375 C 2.976562 -17.449219 2.976562 -17.339844 2.976562 -17.230469 C 2.976562 -17.125 2.9375 -17.015625 2.902344 -16.90625 C 2.828125 -16.6875 2.792969 -16.507812 2.792969 -16.363281 C 2.792969 -15.960938 2.757812 -15.601562 2.722656 -15.238281 C 2.648438 -14.875 2.613281 -14.476562 2.574219 -14.113281 C 2.503906 -13.675781 2.46875 -13.277344 2.394531 -12.914062 C 2.320312 -12.550781 2.320312 -12.152344 2.320312 -11.753906 C 2.320312 -11.644531 2.320312 -11.5 2.285156 -11.320312 C 2.140625 -10.917969 2.03125 -10.519531 1.996094 -10.121094 C 1.960938 -9.722656 1.921875 -9.324219 1.886719 -8.925781 L 1.742188 -7.910156 C 1.667969 -7.472656 1.597656 -7.074219 1.488281 -6.675781 C 1.378906 -6.277344 1.304688 -5.878906 1.269531 -5.476562 C 1.234375 -5.1875 1.195312 -5.007812 1.195312 -4.859375 C 1.195312 -4.714844 1.160156 -4.5 1.125 -4.246094 C 1.050781 -4.027344 1.015625 -3.917969 0.980469 -3.84375 C 0.941406 -3.773438 0.90625 -3.628906 0.871094 -3.445312 C 0.796875 -3.15625 0.726562 -2.828125 0.652344 -2.46875 C 0.542969 -2.105469 0.433594 -1.777344 0.363281 -1.558594 C 0.328125 -1.449219 0.289062 -1.34375 0.21875 -1.195312 C 0.144531 -1.050781 0.109375 -0.90625 0.0742188 -0.761719 C 0 -0.617188 -0.0351562 -0.472656 -0.0742188 -0.363281 C -0.109375 -0.21875 -0.109375 -0.144531 -0.0742188 -0.144531 C -0.0742188 -0.0742188 0 -0.0351562 0.21875 0.0351562 C 0.398438 0.109375 0.582031 0.109375 0.726562 0.0351562 C 0.796875 0 0.871094 0 1.015625 0.0351562 C 1.378906 0.109375 1.851562 0.109375 2.394531 0.109375 C 2.902344 0.109375 3.375 0.109375 3.773438 0.0351562 C 3.84375 0.0351562 3.953125 0 4.171875 0 C 4.351562 0 4.570312 -0.0351562 4.789062 -0.0351562 C 5.007812 -0.0351562 5.1875 -0.0742188 5.40625 -0.0742188 C 5.625 -0.0742188 5.769531 -0.0351562 5.839844 -0.0351562 C 6.058594 0.0351562 6.203125 0 6.277344 -0.144531 C 6.3125 -0.328125 6.277344 -0.582031 6.132812 -0.90625 C 5.984375 -1.195312 5.914062 -1.449219 5.914062 -1.667969 C 5.914062 -2.066406 5.839844 -2.429688 5.695312 -2.722656 C 5.550781 -3.011719 5.515625 -3.335938 5.550781 -3.773438 C 5.585938 -4.0625 5.625 -4.246094 5.625 -4.316406 C 5.625 -4.390625 5.695312 -4.460938 5.769531 -4.535156 C 5.769531 -4.535156 5.949219 -4.535156 6.238281 -4.535156 C 6.53125 -4.5 6.746094 -4.5 6.964844 -4.5 C 7.4375 -4.5 7.910156 -4.535156 8.378906 -4.570312 C 8.816406 -4.570312 9.179688 -4.605469 9.433594 -4.605469 Z M 9.105469 -8.816406 C 8.925781 -8.742188 8.707031 -8.671875 8.453125 -8.671875 C 8.164062 -8.671875 7.910156 -8.671875 7.617188 -8.671875 C 7.328125 -8.671875 7.074219 -8.671875 6.785156 -8.671875 C 6.492188 -8.671875 6.277344 -8.707031 6.132812 -8.707031 C 6.167969 -8.996094 6.238281 -9.289062 6.3125 -9.578125 C 6.386719 -9.867188 6.421875 -10.15625 6.421875 -10.449219 C 6.421875 -10.558594 6.386719 -10.664062 6.386719 -10.773438 C 6.347656 -10.882812 6.347656 -10.992188 6.421875 -11.136719 C 6.53125 -11.320312 6.53125 -11.535156 6.421875 -11.753906 L 6.421875 -11.863281 C 6.457031 -12.007812 6.492188 -12.296875 6.566406 -12.734375 C 6.601562 -13.132812 6.640625 -13.566406 6.675781 -14.039062 C 6.710938 -14.511719 6.746094 -14.945312 6.785156 -15.382812 C 6.820312 -15.78125 6.855469 -16.070312 6.929688 -16.289062 C 6.929688 -16.398438 6.964844 -16.578125 7 -16.871094 C 7 -17.125 7.039062 -17.414062 7.074219 -17.703125 C 7.074219 -17.992188 7.109375 -18.246094 7.148438 -18.539062 C 7.183594 -18.792969 7.21875 -18.972656 7.292969 -19.117188 C 7.253906 -19.265625 7.253906 -19.371094 7.292969 -19.519531 C 7.328125 -19.625 7.328125 -19.734375 7.328125 -19.878906 L 7.472656 -22.058594 C 7.472656 -22.128906 7.507812 -22.238281 7.582031 -22.382812 C 7.65625 -22.382812 7.691406 -22.347656 7.726562 -22.3125 C 7.761719 -22.164062 7.800781 -21.875 7.871094 -21.441406 C 7.910156 -21.003906 7.945312 -20.679688 7.945312 -20.460938 C 7.945312 -20.425781 7.945312 -20.351562 7.945312 -20.28125 C 7.945312 -20.207031 7.980469 -20.097656 7.980469 -19.988281 C 7.980469 -19.878906 7.980469 -19.773438 7.980469 -19.699219 C 7.980469 -19.589844 8.015625 -19.519531 8.015625 -19.519531 C 8.015625 -19.445312 8.054688 -19.300781 8.089844 -19.082031 C 8.089844 -18.828125 8.125 -18.574219 8.164062 -18.285156 C 8.164062 -17.992188 8.199219 -17.703125 8.199219 -17.449219 C 8.199219 -17.195312 8.234375 -17.050781 8.234375 -17.015625 C 8.308594 -16.652344 8.34375 -16.363281 8.378906 -16.179688 C 8.378906 -15.960938 8.378906 -15.746094 8.378906 -15.527344 C 8.378906 -15.382812 8.417969 -15.164062 8.453125 -14.875 C 8.488281 -14.582031 8.523438 -14.257812 8.5625 -13.894531 C 8.597656 -13.53125 8.632812 -13.207031 8.671875 -12.914062 C 8.707031 -12.589844 8.742188 -12.371094 8.78125 -12.261719 C 8.78125 -12.191406 8.742188 -12.152344 8.742188 -12.117188 C 8.742188 -12.042969 8.742188 -12.007812 8.816406 -11.972656 C 8.851562 -11.898438 8.851562 -11.863281 8.851562 -11.828125 C 8.816406 -11.753906 8.816406 -11.71875 8.851562 -11.679688 C 8.925781 -11.171875 8.960938 -10.703125 8.996094 -10.230469 C 8.996094 -9.757812 9.035156 -9.289062 9.105469 -8.816406 Z M 9.105469 -8.816406 "/></g></g></g><g fill="#161616" fill-opacity="1"><g transform="translate(88.62911, 51.295281)"><g><path d="M 0.582031 -30.980469 C 0.507812 -30.835938 0.507812 -30.691406 0.582031 -30.546875 C 0.617188 -30.363281 0.652344 -30.183594 0.726562 -30.039062 C 0.796875 -29.855469 0.835938 -29.675781 0.871094 -29.53125 C 0.90625 -29.386719 0.90625 -29.242188 0.90625 -29.167969 C 0.871094 -29.058594 0.871094 -28.949219 0.941406 -28.804688 C 0.980469 -28.660156 1.015625 -28.476562 1.089844 -28.332031 C 1.160156 -28.1875 1.195312 -28.042969 1.269531 -27.898438 C 1.304688 -27.753906 1.34375 -27.609375 1.34375 -27.535156 C 1.34375 -27.316406 1.34375 -27.171875 1.378906 -27.136719 C 1.378906 -27.0625 1.414062 -27.027344 1.449219 -27.027344 C 1.449219 -26.992188 1.488281 -26.953125 1.488281 -26.917969 C 1.488281 -26.847656 1.488281 -26.738281 1.488281 -26.519531 C 1.414062 -26.375 1.414062 -26.265625 1.488281 -26.191406 C 1.523438 -25.976562 1.558594 -25.722656 1.558594 -25.359375 L 1.558594 -23.21875 C 1.558594 -22.78125 1.558594 -22.347656 1.632812 -21.910156 C 1.632812 -21.804688 1.632812 -21.730469 1.632812 -21.65625 C 1.632812 -21.585938 1.667969 -21.476562 1.667969 -21.402344 C 1.597656 -20.894531 1.597656 -20.425781 1.667969 -19.988281 C 1.742188 -19.519531 1.742188 -19.046875 1.742188 -18.574219 C 1.742188 -18.464844 1.703125 -18.394531 1.667969 -18.320312 C 1.632812 -18.246094 1.632812 -18.175781 1.667969 -18.101562 C 1.703125 -17.847656 1.703125 -17.59375 1.703125 -17.378906 C 1.667969 -17.160156 1.667969 -16.90625 1.667969 -16.6875 C 1.667969 -16.253906 1.667969 -15.855469 1.597656 -15.453125 C 1.523438 -15.054688 1.523438 -14.65625 1.597656 -14.257812 C 1.632812 -13.75 1.667969 -13.242188 1.667969 -12.734375 C 1.667969 -12.226562 1.703125 -11.753906 1.777344 -11.246094 C 1.8125 -10.8125 1.8125 -10.410156 1.742188 -9.976562 C 1.667969 -9.542969 1.667969 -9.140625 1.667969 -8.707031 C 1.667969 -8.5625 1.667969 -8.417969 1.703125 -8.269531 C 1.703125 -8.125 1.742188 -7.980469 1.742188 -7.835938 C 1.703125 -7.691406 1.667969 -7.507812 1.667969 -7.363281 C 1.667969 -7.21875 1.667969 -7.039062 1.667969 -6.894531 C 1.667969 -6.820312 1.667969 -6.785156 1.703125 -6.710938 C 1.703125 -6.640625 1.742188 -6.601562 1.777344 -6.53125 C 1.742188 -6.457031 1.703125 -6.347656 1.667969 -6.277344 C 1.632812 -6.203125 1.667969 -6.09375 1.742188 -5.984375 C 1.742188 -5.914062 1.777344 -5.804688 1.777344 -5.660156 L 1.777344 -4.351562 L 1.449219 -2.867188 C 1.378906 -2.722656 1.304688 -2.539062 1.234375 -2.320312 C 1.125 -2.105469 1.015625 -1.851562 0.941406 -1.632812 C 0.871094 -1.378906 0.796875 -1.160156 0.726562 -0.941406 C 0.652344 -0.726562 0.652344 -0.542969 0.6875 -0.398438 C 0.726562 -0.179688 0.796875 -0.0742188 0.871094 -0.0351562 C 0.941406 0 1.050781 0.0351562 1.269531 0.0351562 C 1.414062 0.0742188 1.632812 0.0742188 1.921875 0.0742188 C 2.214844 0.0742188 2.503906 0.0351562 2.792969 0.0351562 C 3.082031 0.0351562 3.335938 0 3.628906 0 C 3.917969 0 4.136719 -0.0351562 4.316406 -0.0351562 L 6.421875 -0.0351562 C 6.746094 -0.0351562 7 -0.179688 7.148438 -0.507812 C 7.074219 -0.582031 7 -0.652344 6.929688 -0.796875 C 6.855469 -0.941406 6.820312 -1.089844 6.785156 -1.234375 C 6.710938 -1.378906 6.675781 -1.558594 6.640625 -1.703125 C 6.601562 -1.851562 6.601562 -1.960938 6.601562 -2.03125 C 6.601562 -2.175781 6.566406 -2.285156 6.566406 -2.359375 C 6.386719 -2.648438 6.238281 -2.976562 6.132812 -3.335938 C 5.984375 -3.699219 5.949219 -3.992188 5.949219 -4.246094 C 5.949219 -4.5 5.949219 -4.753906 5.949219 -5.007812 C 5.949219 -5.261719 5.984375 -5.515625 5.984375 -5.804688 L 5.984375 -7.039062 C 5.984375 -7.4375 5.949219 -7.835938 5.914062 -8.269531 C 5.878906 -8.453125 5.878906 -8.632812 5.914062 -8.78125 C 5.914062 -8.925781 5.949219 -9.105469 5.949219 -9.324219 C 5.949219 -9.613281 5.914062 -9.902344 5.878906 -10.195312 C 5.839844 -10.484375 5.839844 -10.773438 5.839844 -11.066406 C 5.839844 -11.5 5.878906 -11.898438 5.878906 -12.335938 C 5.878906 -12.769531 5.914062 -13.207031 5.914062 -13.640625 L 5.914062 -13.820312 C 5.914062 -13.894531 5.839844 -13.929688 5.730469 -13.96875 C 5.878906 -14.113281 5.914062 -14.257812 5.914062 -14.402344 C 5.914062 -14.546875 5.878906 -14.730469 5.839844 -14.910156 C 5.769531 -15.128906 5.730469 -15.34375 5.769531 -15.5625 C 5.769531 -15.636719 5.730469 -15.816406 5.730469 -16.035156 C 5.730469 -16.253906 5.695312 -16.507812 5.695312 -16.761719 C 5.660156 -17.015625 5.625 -17.269531 5.625 -17.484375 C 5.585938 -17.703125 5.550781 -17.886719 5.550781 -18.03125 C 5.515625 -18.175781 5.515625 -18.320312 5.515625 -18.5 C 5.515625 -18.648438 5.515625 -18.863281 5.585938 -19.082031 C 5.660156 -18.9375 5.695312 -18.863281 5.695312 -18.863281 C 5.769531 -18.574219 5.839844 -18.246094 5.914062 -17.886719 C 5.984375 -17.523438 6.023438 -17.195312 6.09375 -16.871094 C 6.167969 -16.507812 6.203125 -16.179688 6.238281 -15.890625 C 6.277344 -15.601562 6.3125 -15.34375 6.386719 -15.164062 C 6.457031 -14.800781 6.53125 -14.402344 6.601562 -14.039062 C 6.675781 -13.675781 6.785156 -13.3125 6.929688 -12.988281 C 6.964844 -12.769531 7 -12.589844 7.074219 -12.445312 C 7.109375 -12.261719 7.148438 -12.082031 7.148438 -11.898438 L 7.21875 -11.101562 C 7.21875 -10.8125 7.253906 -10.558594 7.328125 -10.304688 C 7.402344 -9.796875 7.507812 -9.359375 7.65625 -8.925781 C 7.800781 -8.488281 7.910156 -8.015625 7.980469 -7.546875 C 8.054688 -7.109375 8.125 -6.710938 8.234375 -6.347656 C 8.34375 -5.984375 8.453125 -5.585938 8.5625 -5.1875 C 8.597656 -4.933594 8.671875 -4.679688 8.742188 -4.460938 C 8.816406 -4.246094 8.851562 -3.992188 8.925781 -3.773438 C 8.996094 -3.375 9.070312 -2.976562 9.070312 -2.613281 C 9.070312 -2.214844 9.179688 -1.8125 9.324219 -1.449219 C 9.324219 -1.378906 9.359375 -1.304688 9.359375 -1.160156 C 9.359375 -1.015625 9.394531 -0.871094 9.433594 -0.726562 C 9.433594 -0.582031 9.46875 -0.433594 9.542969 -0.328125 C 9.613281 -0.179688 9.6875 -0.144531 9.832031 -0.144531 C 9.867188 -0.0742188 9.941406 -0.0742188 10.050781 -0.109375 C 10.121094 -0.109375 10.230469 -0.109375 10.339844 -0.0742188 C 10.558594 0 10.773438 0 10.917969 -0.0742188 C 11.066406 -0.144531 11.246094 -0.144531 11.464844 -0.109375 C 11.679688 -0.0351562 11.828125 -0.0351562 11.972656 -0.0351562 L 12.550781 -0.0351562 C 12.660156 -0.0351562 12.804688 -0.0351562 12.953125 -0.0351562 C 13.023438 -0.0351562 13.097656 0 13.167969 0 C 13.242188 0.0351562 13.3125 0.0742188 13.421875 0.0742188 C 13.605469 0.144531 13.820312 0.144531 14.113281 0.109375 C 14.367188 0.0742188 14.546875 -0.0742188 14.691406 -0.289062 C 14.621094 -0.941406 14.582031 -1.597656 14.582031 -2.25 C 14.582031 -2.902344 14.511719 -3.519531 14.402344 -4.171875 C 14.402344 -4.207031 14.402344 -4.246094 14.4375 -4.316406 C 14.4375 -4.351562 14.476562 -4.425781 14.476562 -4.535156 C 14.402344 -5.078125 14.402344 -5.660156 14.402344 -6.238281 C 14.402344 -6.820312 14.402344 -7.402344 14.367188 -7.980469 C 14.292969 -8.269531 14.292969 -8.5625 14.328125 -8.851562 C 14.367188 -9.140625 14.402344 -9.46875 14.4375 -9.796875 L 14.511719 -11.171875 C 14.546875 -11.390625 14.546875 -11.609375 14.546875 -11.828125 C 14.511719 -12.042969 14.511719 -12.261719 14.582031 -12.480469 C 14.65625 -12.699219 14.65625 -12.914062 14.65625 -13.132812 C 14.65625 -13.351562 14.621094 -13.605469 14.582031 -13.820312 C 14.511719 -14.222656 14.476562 -14.621094 14.476562 -14.984375 C 14.476562 -15.34375 14.476562 -15.746094 14.476562 -16.179688 C 14.4375 -16.652344 14.4375 -17.125 14.4375 -17.59375 L 14.4375 -19.011719 C 14.4375 -19.082031 14.402344 -19.191406 14.367188 -19.265625 C 14.328125 -19.335938 14.328125 -19.410156 14.367188 -19.519531 C 14.4375 -19.953125 14.4375 -20.425781 14.4375 -20.859375 C 14.402344 -21.296875 14.367188 -21.765625 14.367188 -22.203125 C 14.328125 -22.527344 14.292969 -22.855469 14.292969 -23.21875 C 14.292969 -23.582031 14.292969 -23.90625 14.367188 -24.269531 C 14.367188 -24.414062 14.402344 -24.597656 14.402344 -24.742188 C 14.402344 -24.886719 14.4375 -25.066406 14.4375 -25.25 C 14.367188 -25.574219 14.367188 -25.867188 14.367188 -26.085938 C 14.367188 -26.300781 14.402344 -26.554688 14.402344 -26.917969 C 14.367188 -27.207031 14.402344 -27.425781 14.546875 -27.570312 C 14.691406 -27.714844 14.765625 -27.933594 14.800781 -28.296875 C 14.800781 -28.441406 14.835938 -28.695312 14.945312 -29.058594 C 15.019531 -29.421875 15.089844 -29.675781 15.164062 -29.820312 C 15.199219 -30.039062 15.273438 -30.292969 15.417969 -30.546875 C 15.527344 -30.765625 15.527344 -30.980469 15.417969 -31.125 C 15.054688 -31.125 14.582031 -31.164062 14.003906 -31.164062 C 13.421875 -31.164062 12.84375 -31.199219 12.261719 -31.199219 C 11.679688 -31.199219 11.101562 -31.234375 10.558594 -31.234375 L 9.25 -31.234375 C 9.140625 -31.234375 9.105469 -31.199219 9.105469 -31.054688 C 9.105469 -30.910156 9.035156 -30.871094 8.925781 -30.871094 C 9.070312 -30.691406 9.214844 -30.402344 9.324219 -30.039062 C 9.394531 -29.640625 9.46875 -29.347656 9.503906 -29.167969 C 9.503906 -28.804688 9.613281 -28.441406 9.796875 -28.042969 C 9.976562 -27.644531 10.085938 -27.28125 10.15625 -26.953125 C 10.15625 -26.628906 10.195312 -26.339844 10.195312 -26.121094 C 10.195312 -25.902344 10.230469 -25.683594 10.230469 -25.46875 L 10.230469 -23.980469 C 10.230469 -22.601562 10.230469 -21.257812 10.230469 -19.953125 C 10.230469 -19.808594 10.230469 -19.699219 10.230469 -19.625 C 10.230469 -19.519531 10.304688 -19.445312 10.375 -19.371094 C 10.304688 -19.15625 10.265625 -18.972656 10.304688 -18.753906 C 10.304688 -18.539062 10.304688 -18.320312 10.265625 -18.140625 C 10.195312 -17.921875 10.195312 -17.667969 10.265625 -17.449219 C 10.304688 -17.230469 10.265625 -17.015625 10.15625 -16.796875 C 10.15625 -16.652344 10.195312 -16.363281 10.230469 -15.855469 C 10.265625 -15.34375 10.304688 -14.765625 10.339844 -14.148438 C 10.375 -13.53125 10.410156 -12.953125 10.410156 -12.371094 C 10.410156 -11.789062 10.375 -11.425781 10.339844 -11.210938 C 10.265625 -11.28125 10.230469 -11.390625 10.230469 -11.464844 C 10.230469 -11.535156 10.195312 -11.644531 10.15625 -11.71875 C 10.085938 -11.863281 10.050781 -12.117188 10.011719 -12.480469 C 9.976562 -12.84375 9.941406 -13.242188 9.902344 -13.675781 C 9.867188 -14.074219 9.832031 -14.476562 9.796875 -14.835938 C 9.722656 -15.199219 9.6875 -15.492188 9.648438 -15.636719 C 9.433594 -16.253906 9.289062 -16.90625 9.179688 -17.558594 C 9.070312 -18.210938 8.960938 -18.863281 8.816406 -19.519531 C 8.742188 -19.773438 8.707031 -20.027344 8.707031 -20.316406 C 8.707031 -20.605469 8.671875 -20.859375 8.632812 -21.148438 C 8.523438 -21.65625 8.378906 -22.128906 8.234375 -22.636719 C 8.089844 -23.144531 7.980469 -23.652344 7.945312 -24.160156 C 7.910156 -24.597656 7.800781 -24.996094 7.65625 -25.429688 C 7.507812 -25.867188 7.402344 -26.300781 7.402344 -26.738281 C 7.402344 -26.917969 7.363281 -27.101562 7.363281 -27.246094 C 7.363281 -27.390625 7.328125 -27.570312 7.328125 -27.789062 C 7.253906 -28.117188 7.183594 -28.441406 7.109375 -28.804688 C 7 -29.132812 6.964844 -29.496094 7.039062 -29.855469 C 7.039062 -29.929688 7 -30.074219 6.929688 -30.292969 C 6.855469 -30.472656 6.820312 -30.617188 6.785156 -30.726562 C 6.710938 -30.871094 6.640625 -30.980469 6.492188 -31.054688 C 6.347656 -31.089844 6.203125 -31.125 6.058594 -31.125 L 5.949219 -30.980469 C 5.660156 -31.054688 5.441406 -31.089844 5.261719 -31.125 C 5.078125 -31.125 4.859375 -31.125 4.570312 -31.089844 L 3.445312 -31.019531 C 3.375 -31.019531 3.335938 -31.019531 3.265625 -31.019531 C 3.191406 -31.019531 3.15625 -31.019531 3.121094 -31.019531 C 3.011719 -30.945312 2.867188 -30.945312 2.648438 -30.945312 C 2.429688 -30.945312 2.175781 -30.945312 1.960938 -30.945312 C 1.742188 -30.945312 1.523438 -30.980469 1.304688 -31.019531 C 1.089844 -31.019531 0.90625 -31.054688 0.835938 -31.089844 C 0.761719 -31.054688 0.726562 -31.019531 0.6875 -31.019531 C 0.652344 -30.980469 0.617188 -30.980469 0.582031 -30.980469 Z M 0.582031 -30.980469 "/></g></g></g><g fill="#161616" fill-opacity="1"><g transform="translate(104.768759, 51.295281)"><g><path d="M 0.289062 -30.800781 C 0.289062 -30.726562 0.363281 -30.617188 0.433594 -30.472656 C 0.507812 -30.328125 0.542969 -30.148438 0.617188 -29.964844 C 0.6875 -29.75 0.726562 -29.566406 0.796875 -29.421875 C 0.871094 -29.277344 0.90625 -29.167969 0.90625 -29.132812 C 0.90625 -28.914062 0.90625 -28.730469 0.941406 -28.625 C 0.980469 -28.515625 1.015625 -28.441406 1.089844 -28.371094 C 1.125 -28.296875 1.160156 -28.1875 1.234375 -28.117188 C 1.269531 -28.007812 1.304688 -27.863281 1.34375 -27.644531 C 1.34375 -27.5 1.414062 -27.390625 1.523438 -27.246094 C 1.597656 -27.101562 1.632812 -26.992188 1.597656 -26.882812 C 1.488281 -26.59375 1.449219 -26.300781 1.523438 -25.976562 C 1.558594 -25.613281 1.558594 -25.285156 1.558594 -24.996094 C 1.558594 -24.707031 1.558594 -24.378906 1.558594 -24.089844 C 1.558594 -23.871094 1.523438 -23.691406 1.488281 -23.507812 C 1.414062 -23.328125 1.414062 -23.144531 1.488281 -22.964844 C 1.558594 -22.527344 1.597656 -22.128906 1.597656 -21.730469 C 1.597656 -21.296875 1.597656 -20.894531 1.597656 -20.496094 L 1.597656 -18.464844 C 1.597656 -18.101562 1.558594 -17.777344 1.558594 -17.414062 C 1.558594 -17.050781 1.558594 -16.722656 1.632812 -16.398438 C 1.632812 -16.144531 1.632812 -15.890625 1.597656 -15.671875 C 1.558594 -15.453125 1.558594 -15.238281 1.632812 -15.019531 C 1.667969 -14.730469 1.667969 -14.476562 1.632812 -14.183594 C 1.597656 -13.894531 1.597656 -13.640625 1.667969 -13.386719 C 1.703125 -13.167969 1.703125 -12.988281 1.667969 -12.804688 C 1.632812 -12.625 1.632812 -12.445312 1.667969 -12.261719 C 1.703125 -11.863281 1.703125 -11.5 1.703125 -11.136719 C 1.667969 -10.773438 1.667969 -10.375 1.742188 -10.011719 C 1.777344 -9.722656 1.777344 -9.46875 1.777344 -9.179688 C 1.742188 -8.886719 1.703125 -8.632812 1.703125 -8.378906 C 1.703125 -8.234375 1.703125 -8.125 1.703125 -8.054688 C 1.703125 -7.945312 1.742188 -7.835938 1.742188 -7.726562 C 1.667969 -7.253906 1.667969 -6.820312 1.667969 -6.386719 C 1.667969 -5.949219 1.667969 -5.476562 1.667969 -5.042969 C 1.667969 -4.898438 1.667969 -4.824219 1.667969 -4.789062 C 1.667969 -4.753906 1.703125 -4.714844 1.703125 -4.714844 L 1.703125 -4.390625 C 1.632812 -4.027344 1.558594 -3.699219 1.449219 -3.410156 C 1.304688 -3.121094 1.269531 -2.792969 1.269531 -2.429688 C 1.269531 -2.320312 1.195312 -2.175781 1.125 -1.996094 C 1.050781 -1.777344 0.941406 -1.597656 0.871094 -1.378906 C 0.796875 -1.160156 0.726562 -0.941406 0.652344 -0.761719 C 0.582031 -0.542969 0.542969 -0.398438 0.582031 -0.328125 L 1.195312 -0.0742188 C 1.488281 -0.0351562 1.921875 -0.0351562 2.46875 -0.0351562 C 3.011719 -0.0351562 3.589844 -0.0742188 4.207031 -0.109375 C 4.789062 -0.109375 5.371094 -0.109375 5.914062 -0.109375 C 6.457031 -0.0742188 6.894531 0 7.21875 0.0742188 C 7.363281 -0.0351562 7.402344 -0.144531 7.402344 -0.289062 C 7.363281 -0.289062 7.328125 -0.398438 7.253906 -0.542969 C 7.183594 -0.6875 7.109375 -0.871094 7.039062 -1.050781 C 6.964844 -1.234375 6.894531 -1.414062 6.820312 -1.558594 C 6.746094 -1.703125 6.746094 -1.777344 6.746094 -1.851562 C 6.785156 -2.140625 6.746094 -2.359375 6.640625 -2.574219 C 6.53125 -2.757812 6.457031 -2.976562 6.421875 -3.265625 C 6.347656 -3.554688 6.3125 -3.773438 6.277344 -3.84375 C 6.238281 -3.917969 6.238281 -4.097656 6.238281 -4.390625 C 6.238281 -4.898438 6.203125 -5.40625 6.203125 -5.878906 C 6.203125 -6.3125 6.167969 -6.820312 6.167969 -7.328125 C 6.167969 -7.65625 6.167969 -7.980469 6.167969 -8.34375 C 6.167969 -8.707031 6.167969 -9.035156 6.167969 -9.394531 L 6.023438 -11.574219 C 5.984375 -11.644531 5.949219 -11.679688 5.914062 -11.679688 C 5.839844 -11.679688 5.839844 -11.71875 5.878906 -11.789062 C 5.914062 -12.042969 5.949219 -12.296875 5.984375 -12.550781 C 5.984375 -12.804688 5.949219 -13.058594 5.839844 -13.351562 C 5.984375 -13.566406 6.023438 -13.785156 5.949219 -14.039062 C 5.878906 -14.257812 5.878906 -14.511719 5.949219 -14.765625 C 5.914062 -14.800781 5.878906 -14.800781 5.839844 -14.800781 C 5.769531 -14.765625 5.769531 -14.765625 5.769531 -14.800781 C 5.878906 -14.945312 5.949219 -15.054688 5.949219 -15.199219 C 5.949219 -15.34375 5.949219 -15.492188 5.914062 -15.636719 C 5.914062 -15.671875 5.878906 -15.707031 5.839844 -15.707031 C 5.769531 -15.707031 5.769531 -15.746094 5.839844 -15.816406 C 5.949219 -15.925781 5.984375 -16.035156 5.949219 -16.144531 C 5.914062 -16.214844 5.878906 -16.324219 5.878906 -16.46875 L 5.878906 -17.414062 C 5.878906 -17.667969 5.878906 -17.921875 5.914062 -18.210938 C 5.914062 -18.464844 5.914062 -18.71875 5.878906 -19.011719 C 5.839844 -19.15625 5.804688 -19.335938 5.804688 -19.519531 C 5.804688 -19.664062 5.804688 -19.84375 5.878906 -20.0625 C 5.984375 -20.496094 6.023438 -20.96875 5.984375 -21.476562 C 5.914062 -21.839844 5.878906 -22.238281 5.878906 -22.636719 C 5.878906 -23 5.878906 -23.398438 5.949219 -23.835938 C 5.984375 -24.304688 5.984375 -24.777344 5.949219 -25.25 C 5.878906 -25.722656 5.878906 -26.191406 5.949219 -26.699219 C 5.949219 -26.808594 5.949219 -26.917969 5.984375 -26.992188 C 5.984375 -27.0625 6.023438 -27.136719 6.058594 -27.207031 C 6.058594 -27.28125 6.09375 -27.390625 6.167969 -27.5 C 6.203125 -27.609375 6.277344 -27.789062 6.347656 -28.007812 C 6.386719 -28.078125 6.386719 -28.1875 6.347656 -28.261719 C 6.277344 -28.332031 6.277344 -28.441406 6.347656 -28.550781 C 6.421875 -28.625 6.492188 -28.804688 6.566406 -29.023438 C 6.640625 -29.242188 6.746094 -29.457031 6.820312 -29.675781 C 6.894531 -29.894531 6.964844 -30.148438 7.039062 -30.363281 C 7.109375 -30.582031 7.148438 -30.726562 7.21875 -30.835938 C 7.039062 -30.980469 6.929688 -31.089844 6.855469 -31.164062 C 6.675781 -31.199219 6.457031 -31.199219 6.167969 -31.199219 C 5.878906 -31.199219 5.585938 -31.164062 5.296875 -31.125 C 5.007812 -31.089844 4.714844 -31.089844 4.425781 -31.089844 C 4.136719 -31.089844 3.917969 -31.125 3.773438 -31.199219 C 3.628906 -31.125 3.554688 -31.089844 3.519531 -31.089844 C 3.445312 -31.089844 3.335938 -31.089844 3.191406 -31.164062 C 3.15625 -31.164062 3.082031 -31.199219 3.011719 -31.199219 C 2.902344 -31.125 2.722656 -31.089844 2.503906 -31.089844 C 2.285156 -31.089844 2.03125 -31.089844 1.777344 -31.089844 L 0.582031 -31.089844 C 0.507812 -31.019531 0.472656 -31.019531 0.398438 -31.019531 C 0.328125 -31.019531 0.289062 -30.945312 0.289062 -30.800781 Z M 0.289062 -30.800781 "/></g></g></g><g fill="#161616" fill-opacity="1"><g transform="translate(112.530293, 51.295281)"><g><path d="M 8.707031 -8.164062 L 8.378906 -7.945312 C 8.417969 -7.835938 8.417969 -7.726562 8.417969 -7.617188 C 8.378906 -7.507812 8.378906 -7.402344 8.453125 -7.292969 C 8.523438 -7.148438 8.5625 -7.039062 8.5625 -6.929688 C 8.5625 -6.785156 8.597656 -6.675781 8.597656 -6.566406 C 8.597656 -6.238281 8.597656 -5.914062 8.523438 -5.625 C 8.453125 -5.332031 8.417969 -5.007812 8.488281 -4.714844 C 8.523438 -4.5 8.488281 -4.28125 8.378906 -4.136719 C 8.234375 -3.992188 8.125 -3.84375 7.980469 -3.738281 C 7.910156 -3.664062 7.871094 -3.628906 7.835938 -3.589844 C 7.761719 -3.554688 7.726562 -3.519531 7.65625 -3.519531 L 6.675781 -3.519531 L 6.421875 -3.628906 C 6.347656 -3.664062 6.238281 -3.699219 6.167969 -3.738281 C 6.058594 -3.738281 5.984375 -3.808594 5.914062 -3.882812 C 5.839844 -3.953125 5.804688 -3.992188 5.769531 -4.0625 C 5.769531 -4.097656 5.804688 -4.136719 5.804688 -4.207031 C 5.804688 -4.28125 5.804688 -4.316406 5.730469 -4.390625 C 5.625 -4.460938 5.585938 -4.605469 5.585938 -4.753906 C 5.515625 -5.296875 5.515625 -5.839844 5.515625 -6.347656 C 5.515625 -6.855469 5.476562 -7.402344 5.441406 -7.945312 C 5.40625 -8.308594 5.40625 -8.671875 5.40625 -9.035156 C 5.40625 -9.394531 5.441406 -9.722656 5.515625 -10.085938 C 5.515625 -10.375 5.476562 -10.628906 5.476562 -10.917969 C 5.441406 -11.210938 5.441406 -11.5 5.441406 -11.789062 L 5.441406 -12.589844 C 5.441406 -12.878906 5.441406 -13.132812 5.476562 -13.421875 C 5.515625 -13.894531 5.515625 -14.367188 5.515625 -14.875 C 5.476562 -15.34375 5.476562 -15.816406 5.515625 -16.324219 C 5.515625 -16.507812 5.515625 -16.6875 5.441406 -16.871094 C 5.371094 -17.015625 5.371094 -17.195312 5.441406 -17.378906 C 5.515625 -17.667969 5.550781 -17.957031 5.476562 -18.246094 C 5.40625 -18.539062 5.441406 -18.828125 5.515625 -19.117188 C 5.515625 -19.191406 5.515625 -19.226562 5.441406 -19.265625 C 5.371094 -19.300781 5.332031 -19.335938 5.332031 -19.410156 C 5.585938 -19.808594 5.550781 -20.207031 5.261719 -20.640625 C 5.261719 -20.679688 5.296875 -20.714844 5.332031 -20.714844 C 5.371094 -20.714844 5.40625 -20.714844 5.40625 -20.789062 C 5.40625 -20.933594 5.40625 -21.042969 5.441406 -21.1875 C 5.476562 -21.332031 5.515625 -21.476562 5.515625 -21.621094 C 5.515625 -22.058594 5.515625 -22.492188 5.476562 -22.929688 C 5.441406 -23.363281 5.441406 -23.796875 5.515625 -24.234375 C 5.515625 -24.742188 5.515625 -25.25 5.515625 -25.757812 C 5.476562 -26.046875 5.515625 -26.339844 5.625 -26.59375 C 5.695312 -26.808594 5.914062 -26.992188 6.277344 -27.101562 C 6.3125 -27.101562 6.347656 -27.136719 6.347656 -27.171875 C 6.347656 -27.171875 6.386719 -27.207031 6.421875 -27.207031 C 6.710938 -27.207031 6.964844 -27.207031 7.21875 -27.207031 C 7.472656 -27.207031 7.726562 -27.207031 8.015625 -27.136719 C 8.089844 -27.027344 8.199219 -26.953125 8.308594 -26.882812 L 8.597656 -26.664062 C 8.597656 -26.339844 8.5625 -26.046875 8.5625 -25.757812 C 8.5625 -25.46875 8.5625 -25.175781 8.5625 -24.886719 C 8.5625 -24.558594 8.523438 -24.269531 8.523438 -23.980469 C 8.523438 -23.691406 8.523438 -23.363281 8.597656 -23.074219 L 8.742188 -22.964844 C 8.78125 -22.855469 8.816406 -22.820312 8.816406 -22.890625 C 9.46875 -22.746094 10.15625 -22.710938 10.882812 -22.78125 C 11.574219 -22.855469 12.261719 -22.855469 12.953125 -22.820312 L 13.207031 -23.074219 C 13.058594 -23.183594 13.023438 -23.289062 13.097656 -23.398438 C 13.132812 -23.472656 13.167969 -23.582031 13.167969 -23.726562 C 13.167969 -23.980469 13.167969 -24.234375 13.167969 -24.488281 C 13.167969 -24.742188 13.167969 -24.996094 13.132812 -25.285156 C 13.058594 -25.574219 13.058594 -25.902344 13.058594 -26.191406 C 13.058594 -26.484375 13.058594 -26.808594 13.023438 -27.136719 C 12.953125 -27.316406 12.953125 -27.609375 12.988281 -28.007812 C 12.988281 -28.40625 13.023438 -28.839844 13.023438 -29.277344 C 13.023438 -29.710938 13.023438 -30.109375 13.023438 -30.472656 C 12.988281 -30.835938 12.914062 -31.125 12.804688 -31.308594 C 12.660156 -31.453125 12.589844 -31.527344 12.589844 -31.5625 C 12.550781 -31.5625 12.40625 -31.527344 12.152344 -31.453125 C 12.082031 -31.417969 12.007812 -31.34375 11.898438 -31.273438 C 11.753906 -31.199219 11.644531 -31.089844 11.5 -31.019531 C 11.355469 -30.910156 11.210938 -30.800781 11.101562 -30.726562 C 10.957031 -30.65625 10.882812 -30.582031 10.847656 -30.582031 C 10.703125 -30.511719 10.628906 -30.546875 10.59375 -30.617188 C 10.519531 -30.691406 10.449219 -30.765625 10.339844 -30.835938 C 9.6875 -31.273438 8.960938 -31.453125 8.125 -31.417969 C 7.691406 -31.34375 7.292969 -31.417969 7 -31.632812 C 6.785156 -31.453125 6.53125 -31.417969 6.3125 -31.527344 C 6.058594 -31.597656 5.804688 -31.632812 5.550781 -31.5625 C 5.441406 -31.488281 5.332031 -31.453125 5.222656 -31.417969 L 4.859375 -31.273438 C 4.027344 -30.980469 3.265625 -30.546875 2.613281 -29.894531 C 2.359375 -29.601562 2.105469 -29.386719 1.8125 -29.3125 C 1.597656 -28.878906 1.378906 -28.476562 1.234375 -28.117188 C 1.089844 -27.714844 0.980469 -27.28125 0.941406 -26.847656 C 0.90625 -26.265625 0.90625 -25.722656 0.980469 -25.175781 C 1.050781 -24.597656 1.050781 -24.050781 1.050781 -23.507812 L 1.050781 -23.109375 C 1.050781 -22.964844 1.050781 -22.820312 1.089844 -22.710938 C 1.089844 -22.347656 1.050781 -22.019531 1.015625 -21.65625 C 0.941406 -21.296875 0.90625 -20.96875 0.835938 -20.605469 C 0.941406 -20.535156 1.015625 -20.460938 1.015625 -20.386719 L 1.015625 -20.0625 C 1.015625 -19.84375 1.015625 -19.664062 1.015625 -19.519531 C 1.015625 -19.335938 1.015625 -19.15625 1.015625 -18.972656 C 1.015625 -18.539062 0.980469 -18.066406 0.941406 -17.558594 C 0.871094 -17.050781 0.835938 -16.578125 0.835938 -16.144531 C 0.835938 -15.855469 0.835938 -15.601562 0.871094 -15.382812 C 0.90625 -15.128906 0.941406 -14.875 0.941406 -14.621094 C 0.941406 -14.328125 0.941406 -14.074219 0.941406 -13.859375 C 0.941406 -13.640625 0.941406 -13.386719 1.015625 -13.167969 C 1.050781 -12.589844 1.050781 -12.042969 1.015625 -11.5 C 1.015625 -10.992188 0.980469 -10.558594 0.90625 -10.195312 C 0.835938 -9.832031 0.835938 -9.394531 0.835938 -8.925781 C 0.835938 -8.632812 0.835938 -8.34375 0.90625 -7.980469 C 0.980469 -7.617188 1.015625 -7.292969 1.015625 -7.039062 L 1.015625 -3.230469 L 1.269531 -2.828125 C 1.34375 -2.613281 1.449219 -2.429688 1.558594 -2.214844 C 1.632812 -1.996094 1.777344 -1.777344 1.921875 -1.597656 L 2.394531 -1.160156 C 2.648438 -0.871094 2.9375 -0.617188 3.265625 -0.398438 C 3.554688 -0.179688 3.953125 -0.0351562 4.390625 -0.0351562 C 4.5 -0.0351562 4.605469 0 4.679688 0 C 4.753906 0.0351562 4.859375 0.0742188 5.007812 0.109375 C 5.296875 0.179688 5.585938 0.253906 5.878906 0.328125 C 6.167969 0.398438 6.457031 0.433594 6.785156 0.433594 C 7.183594 0.507812 7.582031 0.507812 8.015625 0.433594 C 8.453125 0.363281 8.886719 0.328125 9.324219 0.328125 C 9.722656 0.328125 10.085938 0.21875 10.375 0 C 10.519531 -0.109375 10.703125 -0.179688 10.882812 -0.253906 C 11.027344 -0.328125 11.210938 -0.363281 11.355469 -0.398438 C 11.789062 -0.726562 12.117188 -1.089844 12.40625 -1.523438 C 12.699219 -1.960938 12.953125 -2.394531 13.167969 -2.902344 L 13.242188 -3.628906 C 13.277344 -3.773438 13.3125 -3.953125 13.351562 -4.097656 C 13.351562 -4.246094 13.351562 -4.425781 13.277344 -4.605469 C 13.207031 -4.714844 13.167969 -4.824219 13.167969 -4.96875 C 13.167969 -5.113281 13.167969 -5.261719 13.167969 -5.40625 L 13.167969 -6.492188 C 13.167969 -6.855469 13.207031 -7.253906 13.3125 -7.691406 C 13.167969 -7.910156 13.058594 -8.015625 12.988281 -8.015625 C 12.878906 -8.015625 12.769531 -8.054688 12.660156 -8.125 C 12.007812 -7.980469 11.390625 -7.945312 10.738281 -8.015625 C 10.085938 -8.089844 9.394531 -8.125 8.707031 -8.164062 Z M 8.707031 -8.164062 "/></g></g></g><g fill="#161616" fill-opacity="1"><g transform="translate(126.783957, 51.295281)"><g><path d="M 13.097656 -3.445312 C 13.097656 -3.699219 13.097656 -3.953125 13.167969 -4.246094 C 13.207031 -4.535156 13.207031 -4.789062 13.207031 -5.078125 C 13.167969 -5.332031 13.167969 -5.585938 13.242188 -5.878906 C 13.277344 -6.167969 13.3125 -6.421875 13.3125 -6.710938 C 13.3125 -6.929688 13.3125 -7.21875 13.277344 -7.546875 C 13.242188 -7.871094 13.242188 -8.164062 13.277344 -8.417969 C 13.277344 -8.5625 13.242188 -8.707031 13.242188 -8.851562 L 13.167969 -9.289062 C 13.132812 -9.503906 13.058594 -9.757812 12.988281 -10.050781 C 12.878906 -10.339844 12.769531 -10.628906 12.625 -10.917969 C 12.480469 -11.210938 12.371094 -11.464844 12.226562 -11.753906 C 12.082031 -12.007812 11.972656 -12.226562 11.898438 -12.40625 C 11.71875 -12.734375 11.574219 -12.988281 11.425781 -13.167969 C 11.28125 -13.351562 11.101562 -13.605469 10.917969 -13.96875 C 10.664062 -14.402344 10.410156 -14.800781 10.195312 -15.128906 C 9.941406 -15.453125 9.6875 -15.816406 9.433594 -16.253906 C 9.289062 -16.46875 9.140625 -16.722656 9.070312 -16.976562 C 8.960938 -17.195312 8.851562 -17.449219 8.707031 -17.703125 C 8.5625 -17.886719 8.453125 -18.066406 8.34375 -18.246094 C 8.199219 -18.394531 8.089844 -18.574219 7.980469 -18.792969 C 7.800781 -19.082031 7.617188 -19.371094 7.472656 -19.664062 C 7.328125 -19.953125 7.183594 -20.28125 7.074219 -20.640625 C 7.074219 -20.679688 7 -20.75 6.929688 -20.859375 C 6.785156 -21.148438 6.640625 -21.332031 6.492188 -21.476562 C 6.3125 -21.621094 6.167969 -21.839844 6.09375 -22.164062 C 6.023438 -22.347656 5.984375 -22.492188 5.984375 -22.566406 C 5.949219 -22.636719 5.914062 -22.78125 5.839844 -23 C 5.730469 -23.183594 5.695312 -23.398438 5.695312 -23.617188 L 5.695312 -24.199219 C 5.695312 -24.414062 5.660156 -24.597656 5.625 -24.8125 C 5.550781 -25.066406 5.550781 -25.394531 5.585938 -25.792969 C 5.585938 -26.15625 5.625 -26.484375 5.695312 -26.773438 C 5.730469 -26.882812 5.804688 -26.953125 5.878906 -27.027344 C 5.949219 -27.0625 6.023438 -27.136719 6.023438 -27.28125 C 6.203125 -27.355469 6.421875 -27.390625 6.640625 -27.390625 C 6.855469 -27.390625 7 -27.425781 7.148438 -27.535156 C 7.4375 -27.535156 7.691406 -27.5 7.910156 -27.425781 C 8.125 -27.316406 8.34375 -27.28125 8.632812 -27.28125 C 8.5625 -27.136719 8.597656 -26.992188 8.707031 -26.917969 C 8.78125 -26.847656 8.851562 -26.738281 8.851562 -26.628906 C 8.851562 -26.410156 8.851562 -26.230469 8.851562 -26.085938 C 8.851562 -25.902344 8.851562 -25.722656 8.886719 -25.539062 C 8.886719 -25.140625 8.886719 -24.742188 8.851562 -24.378906 C 8.78125 -24.015625 8.78125 -23.617188 8.851562 -23.253906 C 8.851562 -23.144531 8.851562 -23.035156 8.886719 -22.964844 C 8.925781 -22.890625 8.925781 -22.820312 8.886719 -22.746094 C 8.742188 -22.3125 8.851562 -21.910156 9.25 -21.585938 C 9.433594 -21.65625 9.613281 -21.65625 9.832031 -21.65625 C 10.050781 -21.65625 10.265625 -21.65625 10.484375 -21.695312 C 10.847656 -21.730469 11.246094 -21.695312 11.644531 -21.621094 C 12.007812 -21.550781 12.40625 -21.550781 12.84375 -21.695312 C 12.914062 -21.695312 12.953125 -21.65625 12.988281 -21.65625 C 13.058594 -21.585938 13.097656 -21.585938 13.167969 -21.65625 C 13.207031 -21.695312 13.277344 -21.730469 13.351562 -21.804688 C 13.242188 -22.492188 13.207031 -23.183594 13.207031 -23.90625 C 13.207031 -24.632812 13.277344 -25.359375 13.351562 -26.15625 C 13.421875 -26.300781 13.460938 -26.445312 13.421875 -26.664062 C 13.386719 -26.882812 13.351562 -27.101562 13.3125 -27.316406 C 13.386719 -27.390625 13.386719 -27.5 13.386719 -27.570312 C 13.386719 -27.644531 13.351562 -27.714844 13.351562 -27.863281 C 13.3125 -28.007812 13.3125 -28.222656 13.3125 -28.585938 L 13.3125 -29.675781 C 13.3125 -30.039062 13.277344 -30.402344 13.277344 -30.726562 C 13.277344 -31.054688 13.242188 -31.273438 13.167969 -31.417969 C 13.097656 -31.453125 13.023438 -31.488281 12.878906 -31.488281 C 12.734375 -31.488281 12.589844 -31.453125 12.480469 -31.378906 C 12.082031 -31.089844 11.753906 -30.871094 11.535156 -30.65625 C 11.28125 -30.4375 11.101562 -30.363281 11.027344 -30.4375 C 10.773438 -30.65625 10.59375 -30.800781 10.519531 -30.910156 C 10.449219 -30.980469 10.230469 -31.089844 9.941406 -31.199219 C 9.578125 -31.308594 9.289062 -31.378906 9.070312 -31.453125 C 8.816406 -31.488281 8.523438 -31.527344 8.199219 -31.597656 C 8.089844 -31.597656 7.980469 -31.597656 7.910156 -31.597656 C 7.835938 -31.5625 7.726562 -31.5625 7.65625 -31.597656 C 7.109375 -31.742188 6.566406 -31.742188 5.984375 -31.5625 C 5.769531 -31.488281 5.585938 -31.453125 5.441406 -31.378906 C 5.261719 -31.308594 5.078125 -31.308594 4.933594 -31.308594 C 4.644531 -31.308594 4.351562 -31.234375 4.136719 -31.089844 C 3.917969 -30.945312 3.699219 -30.800781 3.484375 -30.691406 C 3.265625 -30.546875 3.082031 -30.402344 2.9375 -30.21875 C 2.792969 -30.003906 2.613281 -29.820312 2.46875 -29.675781 C 2.25 -29.457031 2.03125 -29.203125 1.886719 -28.949219 C 1.742188 -28.660156 1.632812 -28.40625 1.597656 -28.117188 C 1.523438 -27.898438 1.488281 -27.714844 1.449219 -27.535156 C 1.414062 -27.316406 1.34375 -27.136719 1.269531 -26.953125 C 1.160156 -26.738281 1.160156 -26.484375 1.234375 -26.230469 C 1.269531 -26.046875 1.269531 -25.867188 1.234375 -25.722656 C 1.160156 -25.574219 1.160156 -25.394531 1.195312 -25.214844 L 1.195312 -24.304688 C 1.195312 -24.015625 1.195312 -23.726562 1.269531 -23.398438 C 1.269531 -23.253906 1.34375 -23.074219 1.414062 -22.855469 C 1.488281 -22.636719 1.558594 -22.421875 1.667969 -22.238281 C 1.742188 -22.019531 1.851562 -21.839844 1.921875 -21.695312 C 1.996094 -21.550781 2.03125 -21.441406 2.066406 -21.367188 C 2.140625 -21.078125 2.285156 -20.789062 2.429688 -20.535156 C 2.574219 -20.242188 2.722656 -19.953125 2.792969 -19.664062 C 2.828125 -19.445312 2.902344 -19.226562 3.046875 -19.046875 C 3.15625 -18.828125 3.265625 -18.648438 3.375 -18.464844 C 3.410156 -18.320312 3.445312 -18.210938 3.484375 -18.101562 C 3.519531 -17.957031 3.589844 -17.847656 3.699219 -17.777344 C 4.0625 -17.378906 4.316406 -16.941406 4.535156 -16.46875 C 4.753906 -16 4.96875 -15.5625 5.261719 -15.128906 C 5.476562 -14.691406 5.695312 -14.292969 5.878906 -13.859375 C 6.058594 -13.421875 6.277344 -12.988281 6.566406 -12.589844 C 6.964844 -11.972656 7.328125 -11.355469 7.617188 -10.703125 C 7.910156 -10.050781 8.234375 -9.433594 8.597656 -8.816406 C 8.632812 -8.742188 8.671875 -8.5625 8.742188 -8.34375 C 8.816406 -8.015625 8.816406 -7.582031 8.816406 -7.074219 C 8.816406 -6.566406 8.816406 -6.132812 8.816406 -5.839844 C 8.816406 -5.625 8.816406 -5.441406 8.851562 -5.332031 C 8.851562 -5.222656 8.816406 -5.078125 8.671875 -4.898438 C 8.671875 -4.824219 8.671875 -4.789062 8.707031 -4.753906 C 8.707031 -4.714844 8.742188 -4.679688 8.742188 -4.644531 C 8.597656 -4.390625 8.453125 -4.171875 8.269531 -4.027344 C 8.054688 -3.84375 7.835938 -3.773438 7.617188 -3.808594 L 6.820312 -3.808594 C 6.746094 -3.808594 6.675781 -3.84375 6.601562 -3.917969 C 6.492188 -3.992188 6.386719 -4.097656 6.277344 -4.207031 C 6.167969 -4.28125 6.058594 -4.390625 5.984375 -4.460938 L 5.839844 -4.644531 C 5.695312 -4.789062 5.585938 -4.859375 5.585938 -4.898438 C 5.550781 -4.933594 5.550781 -4.96875 5.550781 -5.007812 C 5.550781 -5.007812 5.585938 -5.042969 5.585938 -5.113281 C 5.585938 -5.152344 5.515625 -5.261719 5.441406 -5.441406 C 5.371094 -5.476562 5.332031 -5.660156 5.261719 -5.949219 C 5.1875 -6.238281 5.113281 -6.421875 5.113281 -6.492188 C 5.042969 -6.601562 4.933594 -6.820312 4.789062 -7.148438 C 4.644531 -7.472656 4.570312 -7.726562 4.605469 -7.871094 L 4.5 -8.125 L 4.316406 -8.742188 C 4.246094 -8.960938 4.171875 -9.179688 4.097656 -9.394531 C 4.027344 -9.613281 3.992188 -9.757812 3.992188 -9.832031 C 3.917969 -10.011719 3.882812 -10.121094 3.808594 -10.15625 C 3.738281 -10.15625 3.699219 -10.195312 3.773438 -10.195312 C 3.699219 -10.195312 3.589844 -10.195312 3.445312 -10.195312 C 3.300781 -10.195312 3.15625 -10.230469 3.011719 -10.230469 L 2.25 -10.230469 C 2.03125 -10.15625 1.851562 -10.121094 1.632812 -10.121094 C 1.414062 -10.121094 1.304688 -10.011719 1.234375 -9.832031 C 1.160156 -9.214844 1.160156 -8.671875 1.160156 -8.199219 C 1.160156 -7.691406 1.160156 -7.21875 1.195312 -6.746094 C 1.195312 -6.277344 1.234375 -5.804688 1.234375 -5.332031 C 1.234375 -4.859375 1.269531 -4.351562 1.269531 -3.808594 C 1.269531 -3.738281 1.304688 -3.554688 1.304688 -3.191406 L 1.304688 -0.871094 C 1.304688 -0.507812 1.304688 -0.328125 1.34375 -0.328125 C 1.378906 -0.21875 1.378906 -0.109375 1.378906 -0.0351562 C 1.34375 0.0351562 1.34375 0.109375 1.414062 0.144531 C 1.597656 0.289062 1.8125 0.328125 2.066406 0.179688 C 2.320312 0.0742188 2.574219 -0.0742188 2.828125 -0.253906 C 3.082031 -0.433594 3.300781 -0.617188 3.519531 -0.761719 C 3.738281 -0.90625 3.882812 -0.941406 3.953125 -0.871094 L 4.207031 -0.582031 L 4.316406 -0.507812 C 4.316406 -0.472656 4.351562 -0.433594 4.425781 -0.433594 C 4.5 -0.433594 4.605469 -0.363281 4.753906 -0.289062 L 5.007812 -0.144531 C 5.078125 -0.109375 5.152344 -0.0742188 5.261719 -0.0742188 C 5.476562 0 5.730469 0.0742188 6.058594 0.21875 C 6.386719 0.363281 6.675781 0.398438 6.894531 0.398438 C 7.21875 0.398438 7.4375 0.363281 7.582031 0.363281 C 7.691406 0.363281 7.910156 0.398438 8.234375 0.398438 C 8.417969 0.363281 8.597656 0.328125 8.816406 0.328125 C 9.035156 0.328125 9.214844 0.328125 9.433594 0.253906 C 9.503906 0.253906 9.613281 0.21875 9.796875 0.21875 L 10.558594 -0.109375 C 10.847656 -0.109375 11.101562 -0.179688 11.320312 -0.328125 C 11.464844 -0.433594 11.574219 -0.542969 11.644531 -0.617188 L 11.972656 -0.941406 C 12.152344 -1.160156 12.296875 -1.378906 12.445312 -1.667969 C 12.589844 -1.960938 12.734375 -2.285156 12.914062 -2.648438 C 12.953125 -2.757812 12.988281 -2.867188 12.988281 -2.976562 C 12.988281 -3.046875 13.023438 -3.230469 13.097656 -3.445312 Z M 13.097656 -3.445312 "/></g></g></g><g fill="#161616" fill-opacity="1"><g transform="translate(141.400311, 51.295281)"><g><path d="M 6.09375 -4.316406 L 6.238281 -4.390625 C 6.09375 -5.914062 6.09375 -7.4375 6.167969 -8.960938 C 6.238281 -10.484375 6.203125 -12.007812 6.132812 -13.53125 C 6.386719 -13.496094 6.640625 -13.460938 6.855469 -13.460938 C 7.074219 -13.421875 7.328125 -13.421875 7.582031 -13.496094 C 7.800781 -13.53125 8.054688 -13.53125 8.308594 -13.53125 C 8.523438 -13.53125 8.78125 -13.53125 9.070312 -13.53125 C 9.070312 -13.386719 9.105469 -13.277344 9.179688 -13.207031 C 9.214844 -13.132812 9.214844 -13.023438 9.179688 -12.953125 C 9.105469 -12.734375 9.105469 -12.550781 9.140625 -12.40625 C 9.140625 -12.261719 9.179688 -12.082031 9.214844 -11.933594 C 9.25 -11.71875 9.25 -11.535156 9.179688 -11.464844 C 9.105469 -11.320312 9.105469 -11.171875 9.105469 -10.992188 C 9.105469 -10.558594 9.140625 -10.15625 9.179688 -9.722656 C 9.214844 -9.289062 9.214844 -8.851562 9.214844 -8.417969 C 9.179688 -8.34375 9.179688 -8.269531 9.25 -8.234375 C 9.289062 -8.164062 9.289062 -8.125 9.25 -8.054688 C 9.25 -6.894531 9.25 -5.730469 9.25 -4.570312 C 9.214844 -4.316406 9.179688 -4.136719 9.140625 -3.992188 C 9.070312 -3.84375 9.035156 -3.664062 8.960938 -3.445312 C 8.886719 -3.300781 8.851562 -3.121094 8.816406 -2.902344 C 8.78125 -2.683594 8.742188 -2.429688 8.707031 -2.175781 C 8.671875 -1.886719 8.632812 -1.632812 8.597656 -1.414062 L 8.488281 -0.871094 C 8.34375 -0.582031 8.308594 -0.398438 8.308594 -0.363281 C 8.308594 -0.328125 8.308594 -0.289062 8.34375 -0.21875 C 8.417969 -0.144531 8.5625 -0.0742188 8.78125 -0.0742188 C 8.960938 -0.0351562 9.179688 -0.0351562 9.394531 -0.0351562 C 9.613281 -0.0351562 9.796875 -0.0351562 10.011719 -0.0351562 C 10.195312 -0.0351562 10.339844 -0.0742188 10.484375 -0.0742188 C 10.703125 -0.0351562 10.917969 -0.0351562 11.136719 -0.0351562 C 11.355469 -0.0351562 11.574219 -0.0742188 11.828125 -0.0742188 L 13.023438 -0.0742188 C 13.242188 -0.0742188 13.496094 -0.0351562 13.714844 -0.0351562 C 13.929688 -0.0351562 14.074219 0 14.183594 0.0351562 C 14.257812 -0.0351562 14.328125 -0.0351562 14.4375 -0.0351562 C 14.511719 -0.0351562 14.582031 -0.0742188 14.65625 -0.179688 C 14.691406 -0.507812 14.621094 -0.871094 14.4375 -1.234375 C 14.222656 -1.597656 14.074219 -1.921875 13.929688 -2.285156 C 13.859375 -2.214844 13.785156 -2.214844 13.785156 -2.320312 C 13.929688 -2.46875 13.96875 -2.757812 13.859375 -3.191406 C 13.714844 -3.589844 13.605469 -3.917969 13.460938 -4.171875 C 13.566406 -4.246094 13.605469 -4.28125 13.605469 -4.351562 C 13.566406 -4.425781 13.566406 -4.5 13.566406 -4.605469 L 13.566406 -5.222656 C 13.566406 -5.332031 13.566406 -5.441406 13.566406 -5.550781 C 13.566406 -5.625 13.566406 -5.730469 13.605469 -5.839844 C 13.605469 -5.949219 13.605469 -6.058594 13.566406 -6.167969 C 13.53125 -6.238281 13.53125 -6.347656 13.605469 -6.492188 C 13.640625 -6.566406 13.640625 -6.640625 13.605469 -6.710938 C 13.53125 -6.785156 13.496094 -6.820312 13.496094 -6.855469 C 13.566406 -7.4375 13.566406 -7.980469 13.53125 -8.523438 C 13.496094 -9.035156 13.496094 -9.578125 13.496094 -10.15625 C 13.460938 -10.15625 13.460938 -10.15625 13.496094 -10.15625 C 13.53125 -10.15625 13.566406 -10.195312 13.566406 -10.230469 C 13.496094 -10.664062 13.496094 -11.136719 13.566406 -11.609375 C 13.605469 -12.082031 13.566406 -12.550781 13.496094 -13.058594 L 13.605469 -13.386719 C 13.605469 -13.785156 13.640625 -14.183594 13.640625 -14.582031 C 13.640625 -14.945312 13.640625 -15.34375 13.714844 -15.78125 C 13.714844 -16 13.675781 -16.214844 13.675781 -16.433594 C 13.675781 -16.652344 13.675781 -16.871094 13.675781 -17.085938 C 13.640625 -17.304688 13.640625 -17.523438 13.675781 -17.738281 C 13.675781 -17.957031 13.714844 -18.175781 13.75 -18.394531 C 13.785156 -18.609375 13.785156 -18.828125 13.75 -19.046875 C 13.675781 -19.265625 13.75 -19.480469 13.894531 -19.699219 C 13.75 -19.917969 13.714844 -20.132812 13.75 -20.386719 C 13.785156 -20.605469 13.785156 -20.859375 13.785156 -21.113281 C 13.75 -21.621094 13.714844 -22.164062 13.714844 -22.675781 C 13.714844 -23.183594 13.714844 -23.726562 13.714844 -24.234375 C 13.675781 -24.414062 13.640625 -24.597656 13.605469 -24.777344 C 13.566406 -24.921875 13.566406 -25.105469 13.566406 -25.320312 C 13.53125 -25.503906 13.53125 -25.683594 13.566406 -25.867188 C 13.566406 -26.046875 13.566406 -26.230469 13.566406 -26.445312 C 13.53125 -26.519531 13.53125 -26.554688 13.53125 -26.59375 C 13.53125 -26.59375 13.566406 -26.664062 13.605469 -26.738281 C 13.640625 -26.917969 13.675781 -27.027344 13.675781 -27.101562 C 13.675781 -27.171875 13.675781 -27.28125 13.75 -27.5 C 13.75 -27.5 13.75 -27.570312 13.785156 -27.714844 C 13.820312 -27.824219 13.859375 -27.933594 13.929688 -28.078125 C 13.96875 -28.222656 14.003906 -28.332031 14.039062 -28.441406 C 14.074219 -28.550781 14.113281 -28.625 14.113281 -28.660156 C 14.074219 -28.839844 14.113281 -29.058594 14.183594 -29.277344 C 14.257812 -29.496094 14.328125 -29.710938 14.4375 -29.929688 C 14.511719 -30.148438 14.582031 -30.328125 14.65625 -30.546875 C 14.730469 -30.765625 14.730469 -30.945312 14.691406 -31.164062 C 14.621094 -31.164062 14.582031 -31.164062 14.582031 -31.199219 C 14.546875 -31.199219 14.511719 -31.234375 14.4375 -31.234375 C 14.367188 -31.234375 14.222656 -31.199219 14.003906 -31.199219 C 13.785156 -31.199219 13.605469 -31.164062 13.386719 -31.164062 C 13.167969 -31.125 12.953125 -31.125 12.734375 -31.125 L 12.335938 -31.125 C 12.117188 -31.125 11.828125 -31.125 11.535156 -31.125 C 11.210938 -31.125 10.882812 -31.089844 10.558594 -31.089844 C 10.230469 -31.089844 9.902344 -31.054688 9.613281 -31.054688 C 9.289062 -31.054688 9.035156 -31.054688 8.816406 -31.054688 C 8.597656 -31.054688 8.453125 -30.945312 8.378906 -30.800781 C 8.378906 -30.511719 8.453125 -30.21875 8.632812 -29.894531 C 8.78125 -29.53125 8.886719 -29.242188 8.886719 -28.984375 C 8.886719 -28.769531 8.925781 -28.550781 8.996094 -28.332031 C 9.070312 -28.117188 9.140625 -27.898438 9.140625 -27.679688 C 9.140625 -27.535156 9.140625 -27.460938 9.140625 -27.390625 C 9.140625 -27.316406 9.179688 -27.28125 9.214844 -27.207031 C 9.214844 -27.136719 9.25 -27.101562 9.289062 -27.027344 C 9.289062 -26.953125 9.289062 -26.847656 9.289062 -26.738281 C 9.25 -26.59375 9.214844 -26.484375 9.179688 -26.339844 C 9.140625 -26.191406 9.140625 -26.046875 9.214844 -25.9375 C 9.25 -25.648438 9.25 -25.394531 9.25 -25.175781 C 9.214844 -24.921875 9.214844 -24.667969 9.289062 -24.414062 C 9.359375 -23.980469 9.359375 -23.582031 9.324219 -23.183594 C 9.25 -22.78125 9.25 -22.382812 9.289062 -21.984375 C 9.289062 -21.695312 9.289062 -21.402344 9.289062 -21.113281 C 9.25 -20.824219 9.25 -20.535156 9.289062 -20.242188 C 9.289062 -19.410156 9.25 -18.609375 9.179688 -17.8125 C 9.070312 -17.667969 8.960938 -17.632812 8.851562 -17.667969 C 8.742188 -17.703125 8.632812 -17.703125 8.523438 -17.667969 C 8.34375 -17.59375 8.199219 -17.59375 8.054688 -17.632812 C 7.910156 -17.632812 7.726562 -17.667969 7.582031 -17.703125 C 7.292969 -17.738281 7 -17.738281 6.710938 -17.738281 C 6.421875 -17.703125 6.09375 -17.703125 5.769531 -17.703125 C 5.878906 -17.777344 5.949219 -18.03125 6.023438 -18.394531 C 6.09375 -18.753906 6.09375 -19.082031 6.058594 -19.371094 C 5.984375 -19.773438 5.949219 -20.171875 6.023438 -20.570312 C 6.09375 -20.933594 6.132812 -21.332031 6.132812 -21.730469 C 6.09375 -22.128906 6.058594 -22.527344 6.023438 -22.929688 C 5.949219 -23.289062 5.949219 -23.691406 5.984375 -24.125 C 6.023438 -24.414062 6.058594 -24.632812 6.058594 -24.707031 C 6.058594 -24.777344 6.023438 -24.960938 6.023438 -25.285156 C 6.023438 -25.394531 5.984375 -25.503906 5.984375 -25.574219 C 5.984375 -25.648438 5.984375 -25.757812 6.058594 -25.902344 C 6.058594 -25.976562 6.09375 -26.085938 6.132812 -26.300781 C 6.132812 -26.519531 6.09375 -26.664062 5.984375 -26.738281 C 6.058594 -26.773438 6.132812 -26.847656 6.132812 -26.992188 C 6.09375 -27.207031 6.132812 -27.425781 6.277344 -27.644531 C 6.386719 -27.863281 6.421875 -28.152344 6.421875 -28.515625 C 6.53125 -28.949219 6.640625 -29.347656 6.710938 -29.710938 C 6.785156 -30.074219 6.929688 -30.4375 7.109375 -30.800781 C 7 -30.910156 6.894531 -30.980469 6.820312 -31.019531 C 6.710938 -31.054688 6.601562 -31.089844 6.53125 -31.164062 L 5.441406 -31.089844 C 4.859375 -31.019531 4.316406 -31.019531 3.773438 -31.019531 C 3.230469 -31.019531 2.683594 -31.019531 2.140625 -31.019531 C 2.066406 -31.019531 1.921875 -31.019531 1.777344 -31.054688 C 1.597656 -31.054688 1.414062 -31.089844 1.234375 -31.089844 C 1.050781 -31.089844 0.871094 -31.089844 0.726562 -31.089844 C 0.582031 -31.089844 0.472656 -31.054688 0.472656 -30.980469 C 0.398438 -30.910156 0.363281 -30.835938 0.363281 -30.726562 C 0.328125 -30.582031 0.328125 -30.511719 0.398438 -30.472656 L 0.472656 -30.257812 C 0.472656 -30.21875 0.472656 -30.148438 0.542969 -30.039062 C 0.617188 -29.929688 0.652344 -29.820312 0.726562 -29.675781 C 0.796875 -29.53125 0.835938 -29.421875 0.871094 -29.3125 C 0.90625 -29.203125 0.941406 -29.132812 0.941406 -29.132812 C 0.941406 -28.949219 0.980469 -28.804688 1.050781 -28.660156 C 1.125 -28.515625 1.195312 -28.371094 1.269531 -28.222656 C 1.34375 -28.078125 1.378906 -27.933594 1.449219 -27.789062 C 1.523438 -27.644531 1.523438 -27.460938 1.523438 -27.316406 C 1.523438 -27.101562 1.523438 -26.992188 1.597656 -26.992188 C 1.632812 -26.992188 1.667969 -26.882812 1.667969 -26.699219 L 1.667969 -26.191406 C 1.703125 -25.757812 1.703125 -25.359375 1.703125 -24.996094 C 1.667969 -24.632812 1.667969 -24.234375 1.667969 -23.835938 C 1.667969 -23.617188 1.667969 -23.398438 1.667969 -23.183594 C 1.667969 -22.964844 1.667969 -22.710938 1.667969 -22.492188 C 1.667969 -22.019531 1.667969 -21.550781 1.703125 -21.113281 C 1.703125 -20.640625 1.703125 -20.171875 1.703125 -19.699219 C 1.632812 -19.265625 1.632812 -18.828125 1.667969 -18.394531 C 1.667969 -17.957031 1.667969 -17.523438 1.667969 -17.085938 C 1.667969 -16.722656 1.632812 -16.363281 1.632812 -16 C 1.632812 -15.636719 1.632812 -15.273438 1.667969 -14.945312 C 1.667969 -14.511719 1.632812 -14.113281 1.558594 -13.75 C 1.558594 -13.675781 1.558594 -13.640625 1.597656 -13.605469 C 1.632812 -13.53125 1.632812 -13.496094 1.632812 -13.421875 L 1.558594 -11.609375 L 1.558594 -10.195312 C 1.558594 -9.757812 1.523438 -9.289062 1.523438 -8.816406 L 1.523438 -8.234375 C 1.523438 -8.054688 1.488281 -7.871094 1.488281 -7.691406 C 1.449219 -7.21875 1.449219 -6.746094 1.449219 -6.3125 C 1.449219 -5.878906 1.488281 -5.40625 1.523438 -4.96875 L 1.523438 -4.351562 C 1.523438 -4.207031 1.488281 -3.953125 1.414062 -3.628906 C 1.34375 -3.300781 1.304688 -3.082031 1.269531 -2.9375 C 1.125 -2.429688 0.980469 -2.03125 0.796875 -1.703125 C 0.617188 -1.378906 0.542969 -0.980469 0.582031 -0.542969 C 0.726562 -0.328125 0.90625 -0.21875 1.089844 -0.179688 C 1.269531 -0.144531 1.488281 -0.144531 1.703125 -0.144531 L 2.429688 -0.144531 C 2.574219 -0.144531 2.757812 -0.109375 2.902344 -0.109375 C 3.046875 -0.109375 3.121094 -0.109375 3.191406 -0.109375 C 3.410156 -0.0351562 3.628906 -0.0351562 3.84375 -0.0351562 C 4.0625 -0.0351562 4.28125 -0.0742188 4.5 -0.144531 C 4.605469 -0.144531 4.753906 -0.144531 4.96875 -0.144531 C 5.1875 -0.144531 5.40625 -0.144531 5.625 -0.144531 C 5.839844 -0.144531 6.023438 -0.144531 6.238281 -0.179688 C 6.421875 -0.179688 6.566406 -0.253906 6.675781 -0.328125 C 6.675781 -0.328125 6.710938 -0.328125 6.785156 -0.328125 C 6.855469 -0.289062 6.929688 -0.328125 7 -0.398438 C 7.039062 -0.726562 6.964844 -1.125 6.746094 -1.558594 C 6.53125 -1.996094 6.457031 -2.429688 6.457031 -2.792969 C 6.457031 -3.046875 6.386719 -3.265625 6.3125 -3.484375 C 6.203125 -3.699219 6.167969 -3.953125 6.167969 -4.246094 C 6.132812 -4.246094 6.132812 -4.246094 6.132812 -4.246094 C 6.132812 -4.246094 6.09375 -4.246094 6.09375 -4.316406 Z M 6.09375 -4.316406 "/></g></g></g><g fill="#161616" fill-opacity="1"><g transform="translate(156.705775, 51.295281)"><g><path d="M 13.167969 -19.519531 C 13.3125 -19.589844 13.351562 -19.699219 13.351562 -19.808594 C 13.351562 -19.917969 13.3125 -20.027344 13.3125 -20.171875 L 13.242188 -20.894531 C 13.207031 -21.113281 13.207031 -21.367188 13.242188 -21.65625 C 13.242188 -21.730469 13.242188 -21.804688 13.277344 -21.875 C 13.277344 -21.949219 13.277344 -22.058594 13.277344 -22.128906 C 13.167969 -22.636719 13.132812 -23.183594 13.207031 -23.726562 C 13.242188 -24.234375 13.277344 -24.777344 13.3125 -25.320312 C 13.3125 -25.503906 13.3125 -25.722656 13.3125 -25.9375 C 13.3125 -26.15625 13.3125 -26.339844 13.277344 -26.554688 C 13.207031 -26.882812 13.167969 -27.207031 13.167969 -27.535156 C 13.132812 -27.863281 13.058594 -28.1875 12.953125 -28.550781 C 12.769531 -28.984375 12.550781 -29.386719 12.261719 -29.675781 C 11.972656 -29.964844 11.679688 -30.257812 11.320312 -30.546875 C 11.101562 -30.65625 10.917969 -30.765625 10.738281 -30.835938 C 10.519531 -30.910156 10.339844 -31.019531 10.15625 -31.164062 L 9.796875 -31.378906 C 9.648438 -31.453125 9.503906 -31.488281 9.324219 -31.527344 C 9.105469 -31.527344 8.851562 -31.5625 8.632812 -31.5625 C 8.417969 -31.5625 8.164062 -31.597656 7.945312 -31.671875 C 7.761719 -31.707031 7.582031 -31.742188 7.4375 -31.78125 C 7.292969 -31.816406 7.109375 -31.816406 6.964844 -31.78125 C 6.492188 -31.632812 6.09375 -31.5625 5.730469 -31.597656 C 5.222656 -31.273438 4.679688 -31.019531 4.171875 -30.800781 C 3.519531 -30.511719 3.011719 -30.183594 2.574219 -29.75 C 2.140625 -29.3125 1.777344 -28.804688 1.523438 -28.1875 C 1.449219 -28.007812 1.378906 -27.824219 1.34375 -27.679688 C 1.304688 -27.5 1.195312 -27.355469 1.050781 -27.246094 C 1.160156 -26.992188 1.195312 -26.738281 1.195312 -26.519531 C 1.160156 -26.300781 1.160156 -26.046875 1.195312 -25.832031 C 1.195312 -25.683594 1.160156 -25.574219 1.125 -25.503906 C 1.089844 -25.394531 1.089844 -25.285156 1.089844 -25.175781 L 0.980469 -22.382812 C 0.980469 -22.09375 0.941406 -21.765625 0.941406 -21.476562 C 0.941406 -21.1875 0.941406 -20.894531 0.980469 -20.605469 C 0.980469 -20.386719 1.015625 -20.207031 1.015625 -19.988281 C 1.015625 -19.773438 1.050781 -19.589844 1.195312 -19.410156 C 1.050781 -19.265625 0.980469 -19.117188 0.980469 -18.972656 C 0.980469 -18.753906 1.015625 -18.539062 1.015625 -18.320312 L 1.015625 -17.703125 C 1.015625 -17.484375 0.980469 -17.304688 0.980469 -17.085938 C 0.980469 -16.871094 0.941406 -16.652344 0.90625 -16.46875 C 0.835938 -16.144531 0.796875 -15.78125 0.871094 -15.382812 C 0.90625 -14.945312 0.941406 -14.546875 0.980469 -14.183594 C 0.980469 -13.785156 1.015625 -13.386719 1.015625 -12.988281 C 0.980469 -12.445312 0.941406 -11.898438 0.941406 -11.390625 C 0.941406 -10.847656 0.941406 -10.304688 1.015625 -9.796875 L 1.089844 -6.894531 L 1.089844 -6.167969 C 1.089844 -5.949219 1.089844 -5.695312 1.125 -5.476562 C 1.125 -5.332031 1.125 -5.222656 1.125 -5.078125 C 1.125 -4.933594 1.125 -4.789062 1.125 -4.644531 C 1.050781 -4.390625 1.050781 -4.136719 1.089844 -3.882812 C 1.125 -3.589844 1.195312 -3.335938 1.269531 -3.121094 C 1.414062 -2.613281 1.632812 -2.175781 1.886719 -1.8125 C 2.105469 -1.449219 2.429688 -1.089844 2.867188 -0.761719 C 3.046875 -0.582031 3.265625 -0.433594 3.484375 -0.363281 C 3.699219 -0.289062 3.953125 -0.179688 4.171875 -0.0351562 L 4.714844 -0.0351562 C 4.789062 -0.0351562 4.824219 0 4.859375 0.0742188 C 4.898438 0.144531 4.96875 0.179688 5.042969 0.179688 C 5.585938 0.253906 6.132812 0.328125 6.675781 0.398438 C 7.183594 0.472656 7.726562 0.507812 8.308594 0.472656 C 9.613281 0.472656 10.8125 0.0351562 11.828125 -0.835938 C 11.933594 -0.90625 12.042969 -1.015625 12.117188 -1.089844 C 12.191406 -1.160156 12.261719 -1.269531 12.261719 -1.414062 C 12.261719 -1.449219 12.261719 -1.449219 12.261719 -1.449219 C 12.261719 -1.449219 12.296875 -1.449219 12.335938 -1.488281 C 12.480469 -1.523438 12.625 -1.597656 12.699219 -1.742188 C 12.769531 -1.886719 12.804688 -1.996094 12.878906 -2.140625 C 12.953125 -2.320312 12.988281 -2.539062 13.058594 -2.757812 C 13.132812 -2.976562 13.167969 -3.191406 13.242188 -3.410156 C 13.277344 -3.738281 13.3125 -4.0625 13.3125 -4.390625 L 13.3125 -5.40625 C 13.3125 -5.585938 13.277344 -5.769531 13.242188 -5.984375 C 13.207031 -6.167969 13.207031 -6.347656 13.277344 -6.566406 C 13.3125 -6.710938 13.351562 -6.894531 13.351562 -7.039062 C 13.351562 -7.183594 13.3125 -7.328125 13.3125 -7.507812 C 13.207031 -8.164062 13.207031 -8.886719 13.277344 -9.6875 C 13.277344 -10.195312 13.277344 -10.703125 13.277344 -11.210938 C 13.277344 -11.464844 13.242188 -11.753906 13.242188 -12.042969 C 13.207031 -12.335938 13.207031 -12.625 13.277344 -12.914062 C 13.277344 -13.207031 13.277344 -13.496094 13.277344 -13.785156 C 13.242188 -14.074219 13.242188 -14.367188 13.242188 -14.65625 C 13.242188 -14.984375 13.242188 -15.308594 13.207031 -15.636719 C 13.132812 -15.925781 13.132812 -16.253906 13.207031 -16.578125 C 13.207031 -16.652344 13.207031 -16.722656 13.207031 -16.796875 C 13.207031 -16.871094 13.242188 -16.90625 13.242188 -16.976562 C 13.242188 -17.339844 13.207031 -17.738281 13.207031 -18.101562 C 13.207031 -18.464844 13.242188 -18.863281 13.351562 -19.265625 C 13.351562 -19.335938 13.3125 -19.371094 13.277344 -19.410156 C 13.242188 -19.410156 13.207031 -19.445312 13.167969 -19.519531 Z M 8.707031 -4.097656 C 8.5625 -4.027344 8.488281 -3.917969 8.417969 -3.84375 C 8.34375 -3.738281 8.234375 -3.628906 8.164062 -3.554688 C 7.945312 -3.375 7.761719 -3.300781 7.582031 -3.300781 C 7.363281 -3.300781 7.183594 -3.300781 7 -3.375 C 6.710938 -3.410156 6.492188 -3.519531 6.277344 -3.664062 C 6.058594 -3.808594 5.804688 -3.992188 5.585938 -4.246094 C 5.550781 -4.28125 5.550781 -4.351562 5.550781 -4.5 L 5.550781 -4.859375 C 5.585938 -5.40625 5.585938 -5.914062 5.515625 -6.386719 C 5.476562 -6.566406 5.476562 -6.746094 5.476562 -6.964844 C 5.476562 -7.148438 5.515625 -7.328125 5.550781 -7.546875 C 5.550781 -8.453125 5.550781 -9.394531 5.550781 -10.339844 C 5.515625 -10.339844 5.476562 -10.375 5.40625 -10.375 C 5.332031 -10.449219 5.371094 -10.519531 5.441406 -10.519531 C 5.515625 -10.519531 5.585938 -10.558594 5.585938 -10.628906 C 5.441406 -10.957031 5.40625 -11.320312 5.441406 -11.679688 C 5.441406 -12.042969 5.476562 -12.371094 5.476562 -12.734375 C 5.476562 -13.097656 5.515625 -13.460938 5.550781 -13.820312 C 5.585938 -14.183594 5.585938 -14.546875 5.515625 -14.910156 C 5.441406 -15.273438 5.40625 -15.636719 5.476562 -16.070312 C 5.515625 -16.46875 5.550781 -16.871094 5.550781 -17.269531 L 5.550781 -21.875 C 5.550781 -22.058594 5.550781 -22.3125 5.625 -22.601562 C 5.660156 -22.890625 5.660156 -23.144531 5.585938 -23.363281 C 5.515625 -23.472656 5.515625 -23.617188 5.515625 -23.761719 C 5.515625 -23.90625 5.550781 -24.089844 5.585938 -24.234375 C 5.585938 -24.304688 5.585938 -24.34375 5.585938 -24.414062 C 5.585938 -24.488281 5.625 -24.558594 5.660156 -24.632812 C 5.585938 -24.851562 5.550781 -25.105469 5.550781 -25.359375 C 5.550781 -25.613281 5.585938 -25.867188 5.585938 -26.15625 C 5.585938 -26.191406 5.585938 -26.230469 5.585938 -26.265625 C 5.585938 -26.300781 5.585938 -26.339844 5.585938 -26.410156 C 5.515625 -26.882812 5.695312 -27.207031 6.167969 -27.355469 C 6.3125 -27.390625 6.421875 -27.460938 6.566406 -27.535156 C 6.675781 -27.609375 6.785156 -27.644531 6.929688 -27.714844 C 7.183594 -27.644531 7.4375 -27.609375 7.65625 -27.570312 C 7.871094 -27.535156 8.089844 -27.535156 8.378906 -27.570312 C 8.453125 -27.5 8.523438 -27.425781 8.597656 -27.355469 C 8.671875 -27.246094 8.78125 -27.207031 8.925781 -27.246094 C 8.886719 -27.171875 8.851562 -27.136719 8.851562 -27.101562 C 8.816406 -27.0625 8.816406 -27.027344 8.851562 -26.992188 C 8.960938 -26.699219 9.035156 -26.410156 9.035156 -26.121094 C 9.035156 -25.832031 8.996094 -25.539062 8.996094 -25.25 C 8.925781 -24.851562 8.925781 -24.453125 8.925781 -24.089844 C 8.925781 -23.726562 8.960938 -23.328125 8.960938 -22.929688 C 8.886719 -21.984375 8.886719 -21.042969 8.960938 -20.097656 C 8.960938 -19.445312 8.960938 -18.828125 8.960938 -18.175781 C 8.925781 -17.523438 8.925781 -16.90625 8.960938 -16.289062 L 8.960938 -14.65625 C 8.960938 -14.113281 8.925781 -13.566406 8.925781 -13.023438 C 8.925781 -12.515625 8.925781 -12.042969 8.925781 -11.535156 C 8.925781 -11.027344 8.960938 -10.519531 8.996094 -10.011719 C 8.996094 -9.867188 8.960938 -9.757812 8.960938 -9.648438 C 8.960938 -9.542969 8.925781 -9.433594 8.925781 -9.324219 C 8.851562 -9.214844 8.851562 -9.140625 8.851562 -9.070312 C 8.851562 -8.671875 8.851562 -8.269531 8.851562 -7.910156 C 8.816406 -7.546875 8.816406 -7.148438 8.851562 -6.785156 C 8.886719 -6.421875 8.886719 -6.058594 8.851562 -5.730469 C 8.816406 -5.371094 8.78125 -5.042969 8.78125 -4.714844 L 8.78125 -4.425781 C 8.78125 -4.316406 8.742188 -4.207031 8.707031 -4.097656 Z M 8.707031 -4.097656 "/></g></g></g><g fill="#161616" fill-opacity="1"><g transform="translate(171.285857, 51.295281)"><g><path d="M 0.433594 -30.800781 C 0.582031 -30.546875 0.726562 -30.257812 0.835938 -29.894531 C 0.90625 -29.53125 0.980469 -29.203125 1.015625 -28.949219 C 1.015625 -28.878906 1.050781 -28.695312 1.125 -28.441406 C 1.195312 -28.152344 1.269531 -27.96875 1.269531 -27.898438 C 1.269531 -27.535156 1.304688 -27.316406 1.449219 -27.207031 C 1.597656 -27.0625 1.667969 -26.917969 1.667969 -26.738281 C 1.667969 -26.519531 1.667969 -26.339844 1.667969 -26.230469 C 1.667969 -26.121094 1.703125 -26.011719 1.703125 -25.9375 C 1.703125 -25.832031 1.742188 -25.722656 1.742188 -25.613281 L 1.742188 -25.105469 C 1.742188 -24.667969 1.742188 -24.234375 1.777344 -23.796875 C 1.777344 -23.363281 1.777344 -22.929688 1.777344 -22.492188 C 1.742188 -21.910156 1.742188 -21.367188 1.742188 -20.859375 C 1.742188 -20.316406 1.777344 -19.773438 1.777344 -19.226562 L 1.777344 -17.339844 C 1.777344 -16.652344 1.742188 -15.960938 1.667969 -15.308594 C 1.597656 -14.65625 1.597656 -13.96875 1.632812 -13.3125 C 1.632812 -12.953125 1.632812 -12.550781 1.667969 -12.191406 C 1.703125 -11.828125 1.667969 -11.464844 1.558594 -11.101562 C 1.632812 -10.519531 1.667969 -9.976562 1.632812 -9.394531 C 1.558594 -8.816406 1.558594 -8.234375 1.632812 -7.691406 C 1.632812 -7.402344 1.632812 -7.148438 1.597656 -6.855469 C 1.558594 -6.566406 1.558594 -6.3125 1.558594 -6.058594 C 1.523438 -5.695312 1.523438 -5.441406 1.523438 -5.222656 C 1.523438 -5.007812 1.523438 -4.714844 1.558594 -4.390625 C 1.558594 -4.027344 1.488281 -3.808594 1.414062 -3.664062 C 1.304688 -3.519531 1.269531 -3.300781 1.34375 -3.011719 C 1.34375 -2.867188 1.34375 -2.757812 1.304688 -2.613281 C 1.234375 -2.46875 1.195312 -2.359375 1.125 -2.214844 C 1.050781 -2.066406 0.980469 -1.960938 0.941406 -1.8125 C 0.871094 -1.667969 0.871094 -1.523438 0.871094 -1.449219 C 0.871094 -1.414062 0.835938 -1.34375 0.796875 -1.234375 C 0.761719 -1.125 0.726562 -1.015625 0.6875 -0.90625 C 0.617188 -0.761719 0.582031 -0.652344 0.542969 -0.582031 L 0.507812 -0.433594 L 0.726562 -0.144531 C 0.871094 -0.0742188 1.089844 -0.0742188 1.378906 -0.0742188 C 1.667969 -0.0742188 1.960938 -0.0742188 2.25 -0.0742188 C 2.539062 -0.0742188 2.828125 -0.109375 3.121094 -0.109375 C 3.410156 -0.109375 3.628906 -0.0742188 3.773438 -0.0742188 C 3.917969 -0.0351562 4.171875 0 4.460938 0 C 4.753906 0 5.078125 0 5.40625 0 C 5.695312 0 6.023438 0 6.3125 0 C 6.601562 0 6.820312 -0.0351562 7 -0.0351562 C 7.148438 -0.144531 7.253906 -0.289062 7.328125 -0.507812 C 7.328125 -0.582031 7.292969 -0.6875 7.21875 -0.90625 C 7.148438 -1.125 7.039062 -1.34375 6.964844 -1.558594 C 6.855469 -1.777344 6.746094 -1.996094 6.675781 -2.214844 C 6.601562 -2.429688 6.566406 -2.574219 6.566406 -2.648438 C 6.566406 -2.867188 6.53125 -3.011719 6.53125 -3.121094 C 6.492188 -3.191406 6.457031 -3.300781 6.421875 -3.375 C 6.386719 -3.445312 6.347656 -3.519531 6.3125 -3.628906 C 6.277344 -3.699219 6.238281 -3.882812 6.238281 -4.136719 C 6.167969 -4.316406 6.203125 -4.460938 6.3125 -4.570312 C 6.3125 -4.824219 6.277344 -5.078125 6.238281 -5.296875 C 6.203125 -5.515625 6.203125 -5.730469 6.277344 -5.949219 C 6.347656 -6.601562 6.347656 -7.253906 6.277344 -7.945312 C 6.238281 -8.199219 6.203125 -8.453125 6.167969 -8.671875 C 6.132812 -8.886719 6.132812 -9.140625 6.132812 -9.433594 C 6.132812 -9.613281 6.167969 -9.796875 6.203125 -10.011719 C 6.203125 -10.230469 6.238281 -10.410156 6.238281 -10.628906 C 6.238281 -10.738281 6.277344 -10.847656 6.277344 -10.957031 C 6.277344 -11.066406 6.3125 -11.171875 6.457031 -11.28125 C 6.3125 -11.464844 6.277344 -11.679688 6.3125 -11.933594 C 6.386719 -12.117188 6.386719 -12.335938 6.347656 -12.625 C 6.3125 -12.84375 6.3125 -13.058594 6.3125 -13.277344 C 6.3125 -13.496094 6.347656 -13.75 6.347656 -14.039062 C 6.929688 -14.003906 7.507812 -14.003906 8.089844 -14.003906 C 8.632812 -14.003906 9.179688 -14.074219 9.757812 -14.222656 C 10.011719 -14.257812 10.265625 -14.328125 10.558594 -14.402344 C 10.8125 -14.476562 11.066406 -14.582031 11.28125 -14.765625 C 11.898438 -15.238281 12.445312 -15.816406 12.878906 -16.46875 C 13.242188 -17.050781 13.496094 -17.667969 13.605469 -18.320312 C 13.714844 -18.972656 13.75 -19.625 13.714844 -20.316406 C 13.640625 -20.640625 13.640625 -20.96875 13.640625 -21.296875 C 13.640625 -21.585938 13.640625 -21.910156 13.675781 -22.273438 C 13.675781 -22.746094 13.675781 -23.21875 13.714844 -23.691406 C 13.75 -24.125 13.75 -24.597656 13.75 -25.105469 C 13.75 -25.359375 13.714844 -25.613281 13.675781 -25.902344 C 13.640625 -26.191406 13.605469 -26.445312 13.605469 -26.738281 C 13.53125 -27.207031 13.421875 -27.644531 13.277344 -28.078125 C 13.132812 -28.476562 12.953125 -28.878906 12.769531 -29.3125 C 12.625 -29.53125 12.480469 -29.710938 12.296875 -29.855469 C 12.082031 -30.003906 11.898438 -30.183594 11.71875 -30.402344 C 11.574219 -30.546875 11.390625 -30.65625 11.210938 -30.726562 C 11.027344 -30.800781 10.847656 -30.871094 10.703125 -30.945312 C 10.339844 -30.980469 10.011719 -31.054688 9.722656 -31.125 C 9.394531 -31.199219 9.070312 -31.164062 8.742188 -31.089844 C 8.488281 -31.019531 8.234375 -31.019531 8.015625 -31.019531 C 7.761719 -31.019531 7.507812 -31.054688 7.292969 -31.054688 C 6.894531 -31.054688 6.492188 -31.089844 6.132812 -31.164062 C 5.769531 -31.234375 5.371094 -31.234375 5.007812 -31.199219 C 4.789062 -31.125 4.644531 -31.125 4.5 -31.164062 C 4.28125 -31.164062 3.992188 -31.164062 3.664062 -31.164062 C 3.335938 -31.164062 3.011719 -31.199219 2.648438 -31.199219 C 2.285156 -31.199219 1.921875 -31.164062 1.597656 -31.164062 C 1.269531 -31.164062 1.015625 -31.164062 0.796875 -31.164062 C 0.726562 -31.089844 0.6875 -31.054688 0.617188 -30.980469 C 0.542969 -30.910156 0.472656 -30.871094 0.433594 -30.800781 Z M 5.949219 -24.304688 C 6.023438 -24.34375 6.09375 -24.488281 6.132812 -24.707031 C 6.167969 -24.921875 6.167969 -25.175781 6.167969 -25.46875 C 6.167969 -25.757812 6.132812 -26.011719 6.132812 -26.300781 C 6.09375 -26.554688 6.09375 -26.738281 6.09375 -26.882812 L 6.601562 -26.882812 C 6.785156 -26.882812 6.964844 -26.847656 7.109375 -26.808594 C 7.328125 -26.738281 7.546875 -26.738281 7.761719 -26.808594 C 8.015625 -26.847656 8.234375 -26.808594 8.417969 -26.738281 C 8.5625 -26.664062 8.742188 -26.554688 8.925781 -26.410156 L 9.179688 -26.191406 L 9.324219 -25.539062 C 9.359375 -25.320312 9.394531 -25.105469 9.433594 -24.921875 C 9.46875 -24.707031 9.46875 -24.488281 9.433594 -24.269531 C 9.359375 -24.050781 9.359375 -23.871094 9.433594 -23.691406 C 9.46875 -23.617188 9.503906 -23.582031 9.503906 -23.507812 L 9.503906 -23.328125 C 9.46875 -22.964844 9.433594 -22.566406 9.394531 -22.203125 C 9.324219 -21.804688 9.359375 -21.441406 9.46875 -21.113281 C 9.503906 -20.894531 9.503906 -20.714844 9.46875 -20.496094 C 9.433594 -20.28125 9.433594 -20.0625 9.503906 -19.84375 C 9.503906 -19.734375 9.503906 -19.664062 9.542969 -19.625 C 9.394531 -19.265625 9.214844 -19.011719 8.960938 -18.828125 C 8.707031 -18.609375 8.453125 -18.429688 8.199219 -18.210938 C 7.761719 -18.355469 7.292969 -18.355469 6.785156 -18.246094 C 6.675781 -18.285156 6.566406 -18.320312 6.492188 -18.394531 C 6.421875 -18.429688 6.3125 -18.429688 6.167969 -18.429688 C 6.238281 -18.609375 6.238281 -18.792969 6.167969 -18.972656 C 6.09375 -19.15625 6.058594 -19.335938 6.132812 -19.554688 C 6.167969 -19.664062 6.167969 -19.84375 6.167969 -20.0625 C 6.167969 -20.28125 6.167969 -20.425781 6.203125 -20.570312 C 6.203125 -20.605469 6.167969 -20.640625 6.167969 -20.714844 C 6.167969 -20.789062 6.167969 -20.824219 6.167969 -20.894531 C 6.058594 -21.367188 6.023438 -21.839844 6.09375 -22.347656 C 6.132812 -22.820312 6.132812 -23.289062 6.132812 -23.796875 C 6.132812 -24.050781 6.058594 -24.234375 5.949219 -24.304688 Z M 5.949219 -24.304688 "/></g></g></g></svg>